<?xml version="1.0" encoding="utf-8" standalone="no"?>
<!DOCTYPE svg PUBLIC "-//W3C//DTD SVG 1.1//EN"
  "http://www.w3.org/Graphics/SVG/1.1/DTD/svg11.dtd">
<!-- Created with matplotlib (https://matplotlib.org/) -->
<svg height="720pt" version="1.1" viewBox="0 0 720 720" width="720pt" xmlns="http://www.w3.org/2000/svg" xmlns:xlink="http://www.w3.org/1999/xlink">
 <defs>
  <style type="text/css">
*{stroke-linecap:butt;stroke-linejoin:round;}
  </style>
 </defs>
 <g id="figure_1">
  <g id="patch_1">
   <path d="M 0 720 
L 720 720 
L 720 0 
L 0 0 
z
" style="fill:#ffffff;"/>
  </g>
  <g id="axes_1">
   <g id="patch_2">
    <path d="M 90 640.8 
L 648 640.8 
L 648 86.4 
L 90 86.4 
z
" style="fill:#ffffff;"/>
   </g>
   <g id="PathCollection_1">
    <defs>
     <path d="M 0 3.535534 
C 0.937635 3.535534 1.836992 3.163008 2.5 2.5 
C 3.163008 1.836992 3.535534 0.937635 3.535534 0 
C 3.535534 -0.937635 3.163008 -1.836992 2.5 -2.5 
C 1.836992 -3.163008 0.937635 -3.535534 0 -3.535534 
C -0.937635 -3.535534 -1.836992 -3.163008 -2.5 -2.5 
C -3.163008 -1.836992 -3.535534 -0.937635 -3.535534 0 
C -3.535534 0.937635 -3.163008 1.836992 -2.5 2.5 
C -1.836992 3.163008 -0.937635 3.535534 0 3.535534 
z
" id="m4551a8bfe9" style="stroke:#ff0000;"/>
    </defs>
    <g clip-path="url(#p37ac8d7f97)">
     <use style="fill:#ff0000;stroke:#ff0000;" x="184.476425" xlink:href="#m4551a8bfe9" y="291.246005"/>
     <use style="fill:#ff0000;stroke:#ff0000;" x="232.477605" xlink:href="#m4551a8bfe9" y="207.360555"/>
     <use style="fill:#ff0000;stroke:#ff0000;" x="201.438101" xlink:href="#m4551a8bfe9" y="224.584722"/>
     <use style="fill:#ff0000;stroke:#ff0000;" x="213.405956" xlink:href="#m4551a8bfe9" y="206.395784"/>
     <use style="fill:#ff0000;stroke:#ff0000;" x="170.023009" xlink:href="#m4551a8bfe9" y="298.955377"/>
     <use style="fill:#ff0000;stroke:#ff0000;" x="167.353647" xlink:href="#m4551a8bfe9" y="374.295135"/>
     <use style="fill:#ff0000;stroke:#ff0000;" x="182.151604" xlink:href="#m4551a8bfe9" y="248.43738"/>
     <use style="fill:#ff0000;stroke:#ff0000;" x="194.767589" xlink:href="#m4551a8bfe9" y="272.431784"/>
     <use style="fill:#ff0000;stroke:#ff0000;" x="226.025905" xlink:href="#m4551a8bfe9" y="165.097059"/>
     <use style="fill:#ff0000;stroke:#ff0000;" x="218.958453" xlink:href="#m4551a8bfe9" y="219.860811"/>
     <use style="fill:#ff0000;stroke:#ff0000;" x="174.353134" xlink:href="#m4551a8bfe9" y="338.72975"/>
     <use style="fill:#ff0000;stroke:#ff0000;" x="189.992132" xlink:href="#m4551a8bfe9" y="260.821901"/>
     <use style="fill:#ff0000;stroke:#ff0000;" x="223.981242" xlink:href="#m4551a8bfe9" y="198.486444"/>
     <use style="fill:#ff0000;stroke:#ff0000;" x="199.483412" xlink:href="#m4551a8bfe9" y="167.282404"/>
     <use style="fill:#ff0000;stroke:#ff0000;" x="141.25549" xlink:href="#m4551a8bfe9" y="398.258647"/>
     <use style="fill:#ff0000;stroke:#ff0000;" x="116.200517" xlink:href="#m4551a8bfe9" y="465.878759"/>
     <use style="fill:#ff0000;stroke:#ff0000;" x="157.135343" xlink:href="#m4551a8bfe9" y="370.18511"/>
     <use style="fill:#ff0000;stroke:#ff0000;" x="189.823649" xlink:href="#m4551a8bfe9" y="294.000963"/>
     <use style="fill:#ff0000;stroke:#ff0000;" x="182.894995" xlink:href="#m4551a8bfe9" y="377.481968"/>
     <use style="fill:#ff0000;stroke:#ff0000;" x="158.126824" xlink:href="#m4551a8bfe9" y="337.581492"/>
     <use style="fill:#ff0000;stroke:#ff0000;" x="212.400319" xlink:href="#m4551a8bfe9" y="299.879358"/>
     <use style="fill:#ff0000;stroke:#ff0000;" x="174.863032" xlink:href="#m4551a8bfe9" y="326.646149"/>
     <use style="fill:#ff0000;stroke:#ff0000;" x="145.680461" xlink:href="#m4551a8bfe9" y="269.655273"/>
     <use style="fill:#ff0000;stroke:#ff0000;" x="229.822178" xlink:href="#m4551a8bfe9" y="275.525398"/>
     <use style="fill:#ff0000;stroke:#ff0000;" x="196.897721" xlink:href="#m4551a8bfe9" y="262.918513"/>
     <use style="fill:#ff0000;stroke:#ff0000;" x="240.65136" xlink:href="#m4551a8bfe9" y="214.971862"/>
     <use style="fill:#ff0000;stroke:#ff0000;" x="208.350621" xlink:href="#m4551a8bfe9" y="279.018389"/>
     <use style="fill:#ff0000;stroke:#ff0000;" x="189.999164" xlink:href="#m4551a8bfe9" y="298.706547"/>
     <use style="fill:#ff0000;stroke:#ff0000;" x="198.520288" xlink:href="#m4551a8bfe9" y="283.676311"/>
     <use style="fill:#ff0000;stroke:#ff0000;" x="208.559999" xlink:href="#m4551a8bfe9" y="227.720147"/>
     <use style="fill:#ff0000;stroke:#ff0000;" x="223.104764" xlink:href="#m4551a8bfe9" y="219.612271"/>
     <use style="fill:#ff0000;stroke:#ff0000;" x="218.363547" xlink:href="#m4551a8bfe9" y="303.983444"/>
     <use style="fill:#ff0000;stroke:#ff0000;" x="115.723755" xlink:href="#m4551a8bfe9" y="377.504231"/>
     <use style="fill:#ff0000;stroke:#ff0000;" x="117.913301" xlink:href="#m4551a8bfe9" y="413.747007"/>
     <use style="fill:#ff0000;stroke:#ff0000;" x="224.166663" xlink:href="#m4551a8bfe9" y="224.026479"/>
     <use style="fill:#ff0000;stroke:#ff0000;" x="209.218568" xlink:href="#m4551a8bfe9" y="240.186641"/>
     <use style="fill:#ff0000;stroke:#ff0000;" x="193.597732" xlink:href="#m4551a8bfe9" y="318.949"/>
     <use style="fill:#ff0000;stroke:#ff0000;" x="161.238205" xlink:href="#m4551a8bfe9" y="290.000409"/>
     <use style="fill:#ff0000;stroke:#ff0000;" x="212.968099" xlink:href="#m4551a8bfe9" y="177.534852"/>
     <use style="fill:#ff0000;stroke:#ff0000;" x="197.978088" xlink:href="#m4551a8bfe9" y="278.326273"/>
     <use style="fill:#ff0000;stroke:#ff0000;" x="183.833669" xlink:href="#m4551a8bfe9" y="286.765168"/>
     <use style="fill:#ff0000;stroke:#ff0000;" x="189.037521" xlink:href="#m4551a8bfe9" y="445.094141"/>
     <use style="fill:#ff0000;stroke:#ff0000;" x="190.405961" xlink:href="#m4551a8bfe9" y="204.865473"/>
     <use style="fill:#ff0000;stroke:#ff0000;" x="206.850449" xlink:href="#m4551a8bfe9" y="304.34659"/>
     <use style="fill:#ff0000;stroke:#ff0000;" x="173.067125" xlink:href="#m4551a8bfe9" y="348.891754"/>
     <use style="fill:#ff0000;stroke:#ff0000;" x="234.461432" xlink:href="#m4551a8bfe9" y="205.127957"/>
     <use style="fill:#ff0000;stroke:#ff0000;" x="155.011731" xlink:href="#m4551a8bfe9" y="335.177156"/>
     <use style="fill:#ff0000;stroke:#ff0000;" x="200.152826" xlink:href="#m4551a8bfe9" y="219.29144"/>
     <use style="fill:#ff0000;stroke:#ff0000;" x="171.06203" xlink:href="#m4551a8bfe9" y="332.059573"/>
     <use style="fill:#ff0000;stroke:#ff0000;" x="203.703933" xlink:href="#m4551a8bfe9" y="256.673706"/>
    </g>
   </g>
   <g id="PathCollection_2">
    <defs>
     <path d="M 0 3.535534 
C 0.937635 3.535534 1.836992 3.163008 2.5 2.5 
C 3.163008 1.836992 3.535534 0.937635 3.535534 0 
C 3.535534 -0.937635 3.163008 -1.836992 2.5 -2.5 
C 1.836992 -3.163008 0.937635 -3.535534 0 -3.535534 
C -0.937635 -3.535534 -1.836992 -3.163008 -2.5 -2.5 
C -3.163008 -1.836992 -3.535534 -0.937635 -3.535534 0 
C -3.535534 0.937635 -3.163008 1.836992 -2.5 2.5 
C -1.836992 3.163008 -0.937635 3.535534 0 3.535534 
z
" id="m1d10593f27" style="stroke:#008000;"/>
    </defs>
    <g clip-path="url(#p37ac8d7f97)">
     <use style="fill:#008000;stroke:#008000;" x="412.75144" xlink:href="#m1d10593f27" y="443.222019"/>
     <use style="fill:#008000;stroke:#008000;" x="400.093037" xlink:href="#m1d10593f27" y="398.739021"/>
     <use style="fill:#008000;stroke:#008000;" x="434.448265" xlink:href="#m1d10593f27" y="422.355263"/>
     <use style="fill:#008000;stroke:#008000;" x="442.725141" xlink:href="#m1d10593f27" y="201.2443"/>
     <use style="fill:#008000;stroke:#008000;" x="451.811719" xlink:href="#m1d10593f27" y="344.27064"/>
     <use style="fill:#008000;stroke:#008000;" x="409.127972" xlink:href="#m1d10593f27" y="292.11596"/>
     <use style="fill:#008000;stroke:#008000;" x="395.343852" xlink:href="#m1d10593f27" y="413.901283"/>
     <use style="fill:#008000;stroke:#008000;" x="379.572128" xlink:href="#m1d10593f27" y="165.125009"/>
     <use style="fill:#008000;stroke:#008000;" x="428.137898" xlink:href="#m1d10593f27" y="367.108993"/>
     <use style="fill:#008000;stroke:#008000;" x="393.266863" xlink:href="#m1d10593f27" y="241.345457"/>
     <use style="fill:#008000;stroke:#008000;" x="429.833593" xlink:href="#m1d10593f27" y="113.123126"/>
     <use style="fill:#008000;stroke:#008000;" x="396.479116" xlink:href="#m1d10593f27" y="338.251818"/>
     <use style="fill:#008000;stroke:#008000;" x="464.487164" xlink:href="#m1d10593f27" y="191.638802"/>
     <use style="fill:#008000;stroke:#008000;" x="422.610243" xlink:href="#m1d10593f27" y="334.274309"/>
     <use style="fill:#008000;stroke:#008000;" x="372.573253" xlink:href="#m1d10593f27" y="292.551987"/>
     <use style="fill:#008000;stroke:#008000;" x="411.354435" xlink:href="#m1d10593f27" y="402.499452"/>
     <use style="fill:#008000;stroke:#008000;" x="390.994838" xlink:href="#m1d10593f27" y="325.499654"/>
     <use style="fill:#008000;stroke:#008000;" x="397.50626" xlink:href="#m1d10593f27" y="267.113626"/>
     <use style="fill:#008000;stroke:#008000;" x="505.551965" xlink:href="#m1d10593f27" y="229.046062"/>
     <use style="fill:#008000;stroke:#008000;" x="412.59229" xlink:href="#m1d10593f27" y="228.71363"/>
     <use style="fill:#008000;stroke:#008000;" x="399.392479" xlink:href="#m1d10593f27" y="391.152447"/>
     <use style="fill:#008000;stroke:#008000;" x="411.740912" xlink:href="#m1d10593f27" y="308.113091"/>
     <use style="fill:#008000;stroke:#008000;" x="485.775275" xlink:href="#m1d10593f27" y="285.219714"/>
     <use style="fill:#008000;stroke:#008000;" x="423.892588" xlink:href="#m1d10593f27" y="311.141264"/>
     <use style="fill:#008000;stroke:#008000;" x="416.20196" xlink:href="#m1d10593f27" y="347.496401"/>
     <use style="fill:#008000;stroke:#008000;" x="418.843802" xlink:href="#m1d10593f27" y="380.793413"/>
     <use style="fill:#008000;stroke:#008000;" x="470.116505" xlink:href="#m1d10593f27" y="358.289799"/>
     <use style="fill:#008000;stroke:#008000;" x="456.359802" xlink:href="#m1d10593f27" y="396.444907"/>
     <use style="fill:#008000;stroke:#008000;" x="419.505996" xlink:href="#m1d10593f27" y="329.866056"/>
     <use style="fill:#008000;stroke:#008000;" x="389.247845" xlink:href="#m1d10593f27" y="240.19342"/>
     <use style="fill:#008000;stroke:#008000;" x="416.861164" xlink:href="#m1d10593f27" y="207.422508"/>
     <use style="fill:#008000;stroke:#008000;" x="409.473333" xlink:href="#m1d10593f27" y="202.433181"/>
     <use style="fill:#008000;stroke:#008000;" x="403.510302" xlink:href="#m1d10593f27" y="273.167003"/>
     <use style="fill:#008000;stroke:#008000;" x="459.638495" xlink:href="#m1d10593f27" y="309.880666"/>
     <use style="fill:#008000;stroke:#008000;" x="382.43305" xlink:href="#m1d10593f27" y="314.459508"/>
     <use style="fill:#008000;stroke:#008000;" x="368.116206" xlink:href="#m1d10593f27" y="413.477093"/>
     <use style="fill:#008000;stroke:#008000;" x="425.23679" xlink:href="#m1d10593f27" y="405.484357"/>
     <use style="fill:#008000;stroke:#008000;" x="488.621815" xlink:href="#m1d10593f27" y="236.842598"/>
     <use style="fill:#008000;stroke:#008000;" x="373.405833" xlink:href="#m1d10593f27" y="313.864435"/>
     <use style="fill:#008000;stroke:#008000;" x="422.093435" xlink:href="#m1d10593f27" y="231.279928"/>
     <use style="fill:#008000;stroke:#008000;" x="416.294147" xlink:href="#m1d10593f27" y="246.756277"/>
     <use style="fill:#008000;stroke:#008000;" x="408.239125" xlink:href="#m1d10593f27" y="349.607147"/>
     <use style="fill:#008000;stroke:#008000;" x="417.103617" xlink:href="#m1d10593f27" y="258.760588"/>
     <use style="fill:#008000;stroke:#008000;" x="393.25971" xlink:href="#m1d10593f27" y="156.39411"/>
     <use style="fill:#008000;stroke:#008000;" x="409.269129" xlink:href="#m1d10593f27" y="269.335858"/>
     <use style="fill:#008000;stroke:#008000;" x="374.134881" xlink:href="#m1d10593f27" y="317.856283"/>
     <use style="fill:#008000;stroke:#008000;" x="390.97831" xlink:href="#m1d10593f27" y="304.416647"/>
     <use style="fill:#008000;stroke:#008000;" x="410.72502" xlink:href="#m1d10593f27" y="333.779829"/>
     <use style="fill:#008000;stroke:#008000;" x="373.594175" xlink:href="#m1d10593f27" y="190.633331"/>
     <use style="fill:#008000;stroke:#008000;" x="399.201465" xlink:href="#m1d10593f27" y="288.815491"/>
    </g>
   </g>
   <g id="PathCollection_3">
    <defs>
     <path d="M 0 3.535534 
C 0.937635 3.535534 1.836992 3.163008 2.5 2.5 
C 3.163008 1.836992 3.535534 0.937635 3.535534 0 
C 3.535534 -0.937635 3.163008 -1.836992 2.5 -2.5 
C 1.836992 -3.163008 0.937635 -3.535534 0 -3.535534 
C -0.937635 -3.535534 -1.836992 -3.163008 -2.5 -2.5 
C -3.163008 -1.836992 -3.535534 -0.937635 -3.535534 0 
C -3.535534 0.937635 -3.163008 1.836992 -2.5 2.5 
C -1.836992 3.163008 -0.937635 3.535534 0 3.535534 
z
" id="m95bd40e418" style="stroke:#0000ff;"/>
    </defs>
    <g clip-path="url(#p37ac8d7f97)">
     <use style="fill:#0000ff;stroke:#0000ff;" x="461.610553" xlink:href="#m95bd40e418" y="487.934247"/>
     <use style="fill:#0000ff;stroke:#0000ff;" x="473.996516" xlink:href="#m95bd40e418" y="304.118674"/>
     <use style="fill:#0000ff;stroke:#0000ff;" x="517.6488" xlink:href="#m95bd40e418" y="437.578426"/>
     <use style="fill:#0000ff;stroke:#0000ff;" x="473.664038" xlink:href="#m95bd40e418" y="368.860264"/>
     <use style="fill:#0000ff;stroke:#0000ff;" x="495.93135" xlink:href="#m95bd40e418" y="408.958246"/>
     <use style="fill:#0000ff;stroke:#0000ff;" x="559.816038" xlink:href="#m95bd40e418" y="470.142123"/>
     <use style="fill:#0000ff;stroke:#0000ff;" x="443.199417" xlink:href="#m95bd40e418" y="191.075658"/>
     <use style="fill:#0000ff;stroke:#0000ff;" x="541.408969" xlink:href="#m95bd40e418" y="424.684611"/>
     <use style="fill:#0000ff;stroke:#0000ff;" x="538.998986" xlink:href="#m95bd40e418" y="329.292083"/>
     <use style="fill:#0000ff;stroke:#0000ff;" x="477.96867" xlink:href="#m95bd40e418" y="554.145547"/>
     <use style="fill:#0000ff;stroke:#0000ff;" x="446.171889" xlink:href="#m95bd40e418" y="428.409356"/>
     <use style="fill:#0000ff;stroke:#0000ff;" x="495.454657" xlink:href="#m95bd40e418" y="343.91969"/>
     <use style="fill:#0000ff;stroke:#0000ff;" x="493.044788" xlink:href="#m95bd40e418" y="418.724449"/>
     <use style="fill:#0000ff;stroke:#0000ff;" x="496.794786" xlink:href="#m95bd40e418" y="268.570834"/>
     <use style="fill:#0000ff;stroke:#0000ff;" x="511.477919" xlink:href="#m95bd40e418" y="322.941145"/>
     <use style="fill:#0000ff;stroke:#0000ff;" x="458.135686" xlink:href="#m95bd40e418" y="445.907786"/>
     <use style="fill:#0000ff;stroke:#0000ff;" x="466.994158" xlink:href="#m95bd40e418" y="392.680032"/>
     <use style="fill:#0000ff;stroke:#0000ff;" x="474.582414" xlink:href="#m95bd40e418" y="608.160713"/>
     <use style="fill:#0000ff;stroke:#0000ff;" x="620.675165" xlink:href="#m95bd40e418" y="421.899835"/>
     <use style="fill:#0000ff;stroke:#0000ff;" x="507.925613" xlink:href="#m95bd40e418" y="227.397492"/>
     <use style="fill:#0000ff;stroke:#0000ff;" x="490.726531" xlink:href="#m95bd40e418" y="465.248005"/>
     <use style="fill:#0000ff;stroke:#0000ff;" x="463.439811" xlink:href="#m95bd40e418" y="298.932606"/>
     <use style="fill:#0000ff;stroke:#0000ff;" x="586.3157" xlink:href="#m95bd40e418" y="442.798472"/>
     <use style="fill:#0000ff;stroke:#0000ff;" x="477.554791" xlink:href="#m95bd40e418" y="331.064819"/>
     <use style="fill:#0000ff;stroke:#0000ff;" x="460.467667" xlink:href="#m95bd40e418" y="464.424628"/>
     <use style="fill:#0000ff;stroke:#0000ff;" x="487.923654" xlink:href="#m95bd40e418" y="472.603026"/>
     <use style="fill:#0000ff;stroke:#0000ff;" x="461.539727" xlink:href="#m95bd40e418" y="338.426543"/>
     <use style="fill:#0000ff;stroke:#0000ff;" x="438.830364" xlink:href="#m95bd40e418" y="365.894235"/>
     <use style="fill:#0000ff;stroke:#0000ff;" x="503.638772" xlink:href="#m95bd40e418" y="367.564821"/>
     <use style="fill:#0000ff;stroke:#0000ff;" x="510.518946" xlink:href="#m95bd40e418" y="422.440482"/>
     <use style="fill:#0000ff;stroke:#0000ff;" x="554.862073" xlink:href="#m95bd40e418" y="415.994507"/>
     <use style="fill:#0000ff;stroke:#0000ff;" x="461.055265" xlink:href="#m95bd40e418" y="613.808648"/>
     <use style="fill:#0000ff;stroke:#0000ff;" x="510.135243" xlink:href="#m95bd40e418" y="370.044695"/>
     <use style="fill:#0000ff;stroke:#0000ff;" x="455.326131" xlink:href="#m95bd40e418" y="337.525224"/>
     <use style="fill:#0000ff;stroke:#0000ff;" x="481.206649" xlink:href="#m95bd40e418" y="292.145338"/>
     <use style="fill:#0000ff;stroke:#0000ff;" x="559.296243" xlink:href="#m95bd40e418" y="480.603967"/>
     <use style="fill:#0000ff;stroke:#0000ff;" x="439.464557" xlink:href="#m95bd40e418" y="487.663691"/>
     <use style="fill:#0000ff;stroke:#0000ff;" x="452.217721" xlink:href="#m95bd40e418" y="404.250901"/>
     <use style="fill:#0000ff;stroke:#0000ff;" x="432.552566" xlink:href="#m95bd40e418" y="358.985608"/>
     <use style="fill:#0000ff;stroke:#0000ff;" x="484.538359" xlink:href="#m95bd40e418" y="438.111207"/>
     <use style="fill:#0000ff;stroke:#0000ff;" x="495.235543" xlink:href="#m95bd40e418" y="446.600584"/>
     <use style="fill:#0000ff;stroke:#0000ff;" x="487.64805" xlink:href="#m95bd40e418" y="446.352028"/>
     <use style="fill:#0000ff;stroke:#0000ff;" x="473.996516" xlink:href="#m95bd40e418" y="304.118674"/>
     <use style="fill:#0000ff;stroke:#0000ff;" x="490.22896" xlink:href="#m95bd40e418" y="463.834758"/>
     <use style="fill:#0000ff;stroke:#0000ff;" x="477.292625" xlink:href="#m95bd40e418" y="487.91111"/>
     <use style="fill:#0000ff;stroke:#0000ff;" x="492.750274" xlink:href="#m95bd40e418" y="421.433733"/>
     <use style="fill:#0000ff;stroke:#0000ff;" x="508.090172" xlink:href="#m95bd40e418" y="302.627159"/>
     <use style="fill:#0000ff;stroke:#0000ff;" x="470.57783" xlink:href="#m95bd40e418" y="397.347901"/>
     <use style="fill:#0000ff;stroke:#0000ff;" x="426.234896" xlink:href="#m95bd40e418" y="476.715779"/>
     <use style="fill:#0000ff;stroke:#0000ff;" x="437.1179" xlink:href="#m95bd40e418" y="356.72324"/>
    </g>
   </g>
   <g id="matplotlib.axis_1">
    <g id="xtick_1">
     <g id="line2d_1">
      <defs>
       <path d="M 0 0 
L 0 3.5 
" id="mff7c167fe2" style="stroke:#000000;stroke-width:0.8;"/>
      </defs>
      <g>
       <use style="stroke:#000000;stroke-width:0.8;" x="128.000596" xlink:href="#mff7c167fe2" y="640.8"/>
      </g>
     </g>
     <g id="text_1">
      <!-- −3 -->
      <defs>
       <path d="M 10.59375 35.5 
L 73.1875 35.5 
L 73.1875 27.203125 
L 10.59375 27.203125 
z
" id="DejaVuSans-8722"/>
       <path d="M 40.578125 39.3125 
Q 47.65625 37.796875 51.625 33 
Q 55.609375 28.21875 55.609375 21.1875 
Q 55.609375 10.40625 48.1875 4.484375 
Q 40.765625 -1.421875 27.09375 -1.421875 
Q 22.515625 -1.421875 17.65625 -0.515625 
Q 12.796875 0.390625 7.625 2.203125 
L 7.625 11.71875 
Q 11.71875 9.328125 16.59375 8.109375 
Q 21.484375 6.890625 26.8125 6.890625 
Q 36.078125 6.890625 40.9375 10.546875 
Q 45.796875 14.203125 45.796875 21.1875 
Q 45.796875 27.640625 41.28125 31.265625 
Q 36.765625 34.90625 28.71875 34.90625 
L 20.21875 34.90625 
L 20.21875 43.015625 
L 29.109375 43.015625 
Q 36.375 43.015625 40.234375 45.921875 
Q 44.09375 48.828125 44.09375 54.296875 
Q 44.09375 59.90625 40.109375 62.90625 
Q 36.140625 65.921875 28.71875 65.921875 
Q 24.65625 65.921875 20.015625 65.03125 
Q 15.375 64.15625 9.8125 62.3125 
L 9.8125 71.09375 
Q 15.4375 72.65625 20.34375 73.4375 
Q 25.25 74.21875 29.59375 74.21875 
Q 40.828125 74.21875 47.359375 69.109375 
Q 53.90625 64.015625 53.90625 55.328125 
Q 53.90625 49.265625 50.4375 45.09375 
Q 46.96875 40.921875 40.578125 39.3125 
z
" id="DejaVuSans-51"/>
      </defs>
      <g transform="translate(119.155284 656.918125)scale(0.12 -0.12)">
       <use xlink:href="#DejaVuSans-8722"/>
       <use x="83.789062" xlink:href="#DejaVuSans-51"/>
      </g>
     </g>
    </g>
    <g id="xtick_2">
     <g id="line2d_2">
      <g>
       <use style="stroke:#000000;stroke-width:0.8;" x="206.939825" xlink:href="#mff7c167fe2" y="640.8"/>
      </g>
     </g>
     <g id="text_2">
      <!-- −2 -->
      <defs>
       <path d="M 19.1875 8.296875 
L 53.609375 8.296875 
L 53.609375 0 
L 7.328125 0 
L 7.328125 8.296875 
Q 12.9375 14.109375 22.625 23.890625 
Q 32.328125 33.6875 34.8125 36.53125 
Q 39.546875 41.84375 41.421875 45.53125 
Q 43.3125 49.21875 43.3125 52.78125 
Q 43.3125 58.59375 39.234375 62.25 
Q 35.15625 65.921875 28.609375 65.921875 
Q 23.96875 65.921875 18.8125 64.3125 
Q 13.671875 62.703125 7.8125 59.421875 
L 7.8125 69.390625 
Q 13.765625 71.78125 18.9375 73 
Q 24.125 74.21875 28.421875 74.21875 
Q 39.75 74.21875 46.484375 68.546875 
Q 53.21875 62.890625 53.21875 53.421875 
Q 53.21875 48.921875 51.53125 44.890625 
Q 49.859375 40.875 45.40625 35.40625 
Q 44.1875 33.984375 37.640625 27.21875 
Q 31.109375 20.453125 19.1875 8.296875 
z
" id="DejaVuSans-50"/>
      </defs>
      <g transform="translate(198.094512 656.918125)scale(0.12 -0.12)">
       <use xlink:href="#DejaVuSans-8722"/>
       <use x="83.789062" xlink:href="#DejaVuSans-50"/>
      </g>
     </g>
    </g>
    <g id="xtick_3">
     <g id="line2d_3">
      <g>
       <use style="stroke:#000000;stroke-width:0.8;" x="285.879053" xlink:href="#mff7c167fe2" y="640.8"/>
      </g>
     </g>
     <g id="text_3">
      <!-- −1 -->
      <defs>
       <path d="M 12.40625 8.296875 
L 28.515625 8.296875 
L 28.515625 63.921875 
L 10.984375 60.40625 
L 10.984375 69.390625 
L 28.421875 72.90625 
L 38.28125 72.90625 
L 38.28125 8.296875 
L 54.390625 8.296875 
L 54.390625 0 
L 12.40625 0 
z
" id="DejaVuSans-49"/>
      </defs>
      <g transform="translate(277.03374 656.918125)scale(0.12 -0.12)">
       <use xlink:href="#DejaVuSans-8722"/>
       <use x="83.789062" xlink:href="#DejaVuSans-49"/>
      </g>
     </g>
    </g>
    <g id="xtick_4">
     <g id="line2d_4">
      <g>
       <use style="stroke:#000000;stroke-width:0.8;" x="364.818281" xlink:href="#mff7c167fe2" y="640.8"/>
      </g>
     </g>
     <g id="text_4">
      <!-- 0 -->
      <defs>
       <path d="M 31.78125 66.40625 
Q 24.171875 66.40625 20.328125 58.90625 
Q 16.5 51.421875 16.5 36.375 
Q 16.5 21.390625 20.328125 13.890625 
Q 24.171875 6.390625 31.78125 6.390625 
Q 39.453125 6.390625 43.28125 13.890625 
Q 47.125 21.390625 47.125 36.375 
Q 47.125 51.421875 43.28125 58.90625 
Q 39.453125 66.40625 31.78125 66.40625 
z
M 31.78125 74.21875 
Q 44.046875 74.21875 50.515625 64.515625 
Q 56.984375 54.828125 56.984375 36.375 
Q 56.984375 17.96875 50.515625 8.265625 
Q 44.046875 -1.421875 31.78125 -1.421875 
Q 19.53125 -1.421875 13.0625 8.265625 
Q 6.59375 17.96875 6.59375 36.375 
Q 6.59375 54.828125 13.0625 64.515625 
Q 19.53125 74.21875 31.78125 74.21875 
z
" id="DejaVuSans-48"/>
      </defs>
      <g transform="translate(361.000781 656.918125)scale(0.12 -0.12)">
       <use xlink:href="#DejaVuSans-48"/>
      </g>
     </g>
    </g>
    <g id="xtick_5">
     <g id="line2d_5">
      <g>
       <use style="stroke:#000000;stroke-width:0.8;" x="443.757509" xlink:href="#mff7c167fe2" y="640.8"/>
      </g>
     </g>
     <g id="text_5">
      <!-- 1 -->
      <g transform="translate(439.940009 656.918125)scale(0.12 -0.12)">
       <use xlink:href="#DejaVuSans-49"/>
      </g>
     </g>
    </g>
    <g id="xtick_6">
     <g id="line2d_6">
      <g>
       <use style="stroke:#000000;stroke-width:0.8;" x="522.696738" xlink:href="#mff7c167fe2" y="640.8"/>
      </g>
     </g>
     <g id="text_6">
      <!-- 2 -->
      <g transform="translate(518.879238 656.918125)scale(0.12 -0.12)">
       <use xlink:href="#DejaVuSans-50"/>
      </g>
     </g>
    </g>
    <g id="xtick_7">
     <g id="line2d_7">
      <g>
       <use style="stroke:#000000;stroke-width:0.8;" x="601.635966" xlink:href="#mff7c167fe2" y="640.8"/>
      </g>
     </g>
     <g id="text_7">
      <!-- 3 -->
      <g transform="translate(597.818466 656.918125)scale(0.12 -0.12)">
       <use xlink:href="#DejaVuSans-51"/>
      </g>
     </g>
    </g>
    <g id="text_8">
     <!-- PC 1 -->
     <defs>
      <path d="M 19.671875 64.796875 
L 19.671875 37.40625 
L 32.078125 37.40625 
Q 38.96875 37.40625 42.71875 40.96875 
Q 46.484375 44.53125 46.484375 51.125 
Q 46.484375 57.671875 42.71875 61.234375 
Q 38.96875 64.796875 32.078125 64.796875 
z
M 9.8125 72.90625 
L 32.078125 72.90625 
Q 44.34375 72.90625 50.609375 67.359375 
Q 56.890625 61.8125 56.890625 51.125 
Q 56.890625 40.328125 50.609375 34.8125 
Q 44.34375 29.296875 32.078125 29.296875 
L 19.671875 29.296875 
L 19.671875 0 
L 9.8125 0 
z
" id="DejaVuSans-80"/>
      <path d="M 64.40625 67.28125 
L 64.40625 56.890625 
Q 59.421875 61.53125 53.78125 63.8125 
Q 48.140625 66.109375 41.796875 66.109375 
Q 29.296875 66.109375 22.65625 58.46875 
Q 16.015625 50.828125 16.015625 36.375 
Q 16.015625 21.96875 22.65625 14.328125 
Q 29.296875 6.6875 41.796875 6.6875 
Q 48.140625 6.6875 53.78125 8.984375 
Q 59.421875 11.28125 64.40625 15.921875 
L 64.40625 5.609375 
Q 59.234375 2.09375 53.4375 0.328125 
Q 47.65625 -1.421875 41.21875 -1.421875 
Q 24.65625 -1.421875 15.125 8.703125 
Q 5.609375 18.84375 5.609375 36.375 
Q 5.609375 53.953125 15.125 64.078125 
Q 24.65625 74.21875 41.21875 74.21875 
Q 47.75 74.21875 53.53125 72.484375 
Q 59.328125 70.75 64.40625 67.28125 
z
" id="DejaVuSans-67"/>
      <path id="DejaVuSans-32"/>
     </defs>
     <g transform="translate(352.085156 674.811406)scale(0.15 -0.15)">
      <use xlink:href="#DejaVuSans-80"/>
      <use x="60.302734" xlink:href="#DejaVuSans-67"/>
      <use x="130.126953" xlink:href="#DejaVuSans-32"/>
      <use x="161.914062" xlink:href="#DejaVuSans-49"/>
     </g>
    </g>
   </g>
   <g id="matplotlib.axis_2">
    <g id="ytick_1">
     <g id="line2d_8">
      <defs>
       <path d="M 0 0 
L -3.5 0 
" id="m2f6fbe96fb" style="stroke:#000000;stroke-width:0.8;"/>
      </defs>
      <g>
       <use style="stroke:#000000;stroke-width:0.8;" x="90" xlink:href="#m2f6fbe96fb" y="584.408366"/>
      </g>
     </g>
     <g id="text_9">
      <!-- −3 -->
      <g transform="translate(62.360937 589.727272)scale(0.14 -0.14)">
       <use xlink:href="#DejaVuSans-8722"/>
       <use x="83.789062" xlink:href="#DejaVuSans-51"/>
      </g>
     </g>
    </g>
    <g id="ytick_2">
     <g id="line2d_9">
      <g>
       <use style="stroke:#000000;stroke-width:0.8;" x="90" xlink:href="#m2f6fbe96fb" y="499.275286"/>
      </g>
     </g>
     <g id="text_10">
      <!-- −2 -->
      <g transform="translate(62.360937 504.594192)scale(0.14 -0.14)">
       <use xlink:href="#DejaVuSans-8722"/>
       <use x="83.789062" xlink:href="#DejaVuSans-50"/>
      </g>
     </g>
    </g>
    <g id="ytick_3">
     <g id="line2d_10">
      <g>
       <use style="stroke:#000000;stroke-width:0.8;" x="90" xlink:href="#m2f6fbe96fb" y="414.142206"/>
      </g>
     </g>
     <g id="text_11">
      <!-- −1 -->
      <g transform="translate(62.360937 419.461112)scale(0.14 -0.14)">
       <use xlink:href="#DejaVuSans-8722"/>
       <use x="83.789062" xlink:href="#DejaVuSans-49"/>
      </g>
     </g>
    </g>
    <g id="ytick_4">
     <g id="line2d_11">
      <g>
       <use style="stroke:#000000;stroke-width:0.8;" x="90" xlink:href="#m2f6fbe96fb" y="329.009126"/>
      </g>
     </g>
     <g id="text_12">
      <!-- 0 -->
      <g transform="translate(74.0925 334.328032)scale(0.14 -0.14)">
       <use xlink:href="#DejaVuSans-48"/>
      </g>
     </g>
    </g>
    <g id="ytick_5">
     <g id="line2d_12">
      <g>
       <use style="stroke:#000000;stroke-width:0.8;" x="90" xlink:href="#m2f6fbe96fb" y="243.876046"/>
      </g>
     </g>
     <g id="text_13">
      <!-- 1 -->
      <g transform="translate(74.0925 249.194952)scale(0.14 -0.14)">
       <use xlink:href="#DejaVuSans-49"/>
      </g>
     </g>
    </g>
    <g id="ytick_6">
     <g id="line2d_13">
      <g>
       <use style="stroke:#000000;stroke-width:0.8;" x="90" xlink:href="#m2f6fbe96fb" y="158.742966"/>
      </g>
     </g>
     <g id="text_14">
      <!-- 2 -->
      <g transform="translate(74.0925 164.061873)scale(0.14 -0.14)">
       <use xlink:href="#DejaVuSans-50"/>
      </g>
     </g>
    </g>
    <g id="text_15">
     <!-- PC 2 -->
     <g transform="translate(55.241406 380.514844)rotate(-90)scale(0.15 -0.15)">
      <use xlink:href="#DejaVuSans-80"/>
      <use x="60.302734" xlink:href="#DejaVuSans-67"/>
      <use x="130.126953" xlink:href="#DejaVuSans-32"/>
      <use x="161.914062" xlink:href="#DejaVuSans-50"/>
     </g>
    </g>
   </g>
   <g id="patch_3">
    <path d="M 90 640.8 
L 90 86.4 
" style="fill:none;stroke:#000000;stroke-linecap:square;stroke-linejoin:miter;stroke-width:0.8;"/>
   </g>
   <g id="patch_4">
    <path d="M 648 640.8 
L 648 86.4 
" style="fill:none;stroke:#000000;stroke-linecap:square;stroke-linejoin:miter;stroke-width:0.8;"/>
   </g>
   <g id="patch_5">
    <path d="M 90 640.8 
L 648 640.8 
" style="fill:none;stroke:#000000;stroke-linecap:square;stroke-linejoin:miter;stroke-width:0.8;"/>
   </g>
   <g id="patch_6">
    <path d="M 90 86.4 
L 648 86.4 
" style="fill:none;stroke:#000000;stroke-linecap:square;stroke-linejoin:miter;stroke-width:0.8;"/>
   </g>
   <g id="text_16">
    <!-- MDS of Iris Dataset -->
    <defs>
     <path d="M 9.8125 72.90625 
L 24.515625 72.90625 
L 43.109375 23.296875 
L 61.8125 72.90625 
L 76.515625 72.90625 
L 76.515625 0 
L 66.890625 0 
L 66.890625 64.015625 
L 48.09375 14.015625 
L 38.1875 14.015625 
L 19.390625 64.015625 
L 19.390625 0 
L 9.8125 0 
z
" id="DejaVuSans-77"/>
     <path d="M 19.671875 64.796875 
L 19.671875 8.109375 
L 31.59375 8.109375 
Q 46.6875 8.109375 53.6875 14.9375 
Q 60.6875 21.78125 60.6875 36.53125 
Q 60.6875 51.171875 53.6875 57.984375 
Q 46.6875 64.796875 31.59375 64.796875 
z
M 9.8125 72.90625 
L 30.078125 72.90625 
Q 51.265625 72.90625 61.171875 64.09375 
Q 71.09375 55.28125 71.09375 36.53125 
Q 71.09375 17.671875 61.125 8.828125 
Q 51.171875 0 30.078125 0 
L 9.8125 0 
z
" id="DejaVuSans-68"/>
     <path d="M 53.515625 70.515625 
L 53.515625 60.890625 
Q 47.90625 63.578125 42.921875 64.890625 
Q 37.9375 66.21875 33.296875 66.21875 
Q 25.25 66.21875 20.875 63.09375 
Q 16.5 59.96875 16.5 54.203125 
Q 16.5 49.359375 19.40625 46.890625 
Q 22.3125 44.4375 30.421875 42.921875 
L 36.375 41.703125 
Q 47.40625 39.59375 52.65625 34.296875 
Q 57.90625 29 57.90625 20.125 
Q 57.90625 9.515625 50.796875 4.046875 
Q 43.703125 -1.421875 29.984375 -1.421875 
Q 24.8125 -1.421875 18.96875 -0.25 
Q 13.140625 0.921875 6.890625 3.21875 
L 6.890625 13.375 
Q 12.890625 10.015625 18.65625 8.296875 
Q 24.421875 6.59375 29.984375 6.59375 
Q 38.421875 6.59375 43.015625 9.90625 
Q 47.609375 13.234375 47.609375 19.390625 
Q 47.609375 24.75 44.3125 27.78125 
Q 41.015625 30.8125 33.5 32.328125 
L 27.484375 33.5 
Q 16.453125 35.6875 11.515625 40.375 
Q 6.59375 45.0625 6.59375 53.421875 
Q 6.59375 63.09375 13.40625 68.65625 
Q 20.21875 74.21875 32.171875 74.21875 
Q 37.3125 74.21875 42.625 73.28125 
Q 47.953125 72.359375 53.515625 70.515625 
z
" id="DejaVuSans-83"/>
     <path d="M 30.609375 48.390625 
Q 23.390625 48.390625 19.1875 42.75 
Q 14.984375 37.109375 14.984375 27.296875 
Q 14.984375 17.484375 19.15625 11.84375 
Q 23.34375 6.203125 30.609375 6.203125 
Q 37.796875 6.203125 41.984375 11.859375 
Q 46.1875 17.53125 46.1875 27.296875 
Q 46.1875 37.015625 41.984375 42.703125 
Q 37.796875 48.390625 30.609375 48.390625 
z
M 30.609375 56 
Q 42.328125 56 49.015625 48.375 
Q 55.71875 40.765625 55.71875 27.296875 
Q 55.71875 13.875 49.015625 6.21875 
Q 42.328125 -1.421875 30.609375 -1.421875 
Q 18.84375 -1.421875 12.171875 6.21875 
Q 5.515625 13.875 5.515625 27.296875 
Q 5.515625 40.765625 12.171875 48.375 
Q 18.84375 56 30.609375 56 
z
" id="DejaVuSans-111"/>
     <path d="M 37.109375 75.984375 
L 37.109375 68.5 
L 28.515625 68.5 
Q 23.6875 68.5 21.796875 66.546875 
Q 19.921875 64.59375 19.921875 59.515625 
L 19.921875 54.6875 
L 34.71875 54.6875 
L 34.71875 47.703125 
L 19.921875 47.703125 
L 19.921875 0 
L 10.890625 0 
L 10.890625 47.703125 
L 2.296875 47.703125 
L 2.296875 54.6875 
L 10.890625 54.6875 
L 10.890625 58.5 
Q 10.890625 67.625 15.140625 71.796875 
Q 19.390625 75.984375 28.609375 75.984375 
z
" id="DejaVuSans-102"/>
     <path d="M 9.8125 72.90625 
L 19.671875 72.90625 
L 19.671875 0 
L 9.8125 0 
z
" id="DejaVuSans-73"/>
     <path d="M 41.109375 46.296875 
Q 39.59375 47.171875 37.8125 47.578125 
Q 36.03125 48 33.890625 48 
Q 26.265625 48 22.1875 43.046875 
Q 18.109375 38.09375 18.109375 28.8125 
L 18.109375 0 
L 9.078125 0 
L 9.078125 54.6875 
L 18.109375 54.6875 
L 18.109375 46.1875 
Q 20.953125 51.171875 25.484375 53.578125 
Q 30.03125 56 36.53125 56 
Q 37.453125 56 38.578125 55.875 
Q 39.703125 55.765625 41.0625 55.515625 
z
" id="DejaVuSans-114"/>
     <path d="M 9.421875 54.6875 
L 18.40625 54.6875 
L 18.40625 0 
L 9.421875 0 
z
M 9.421875 75.984375 
L 18.40625 75.984375 
L 18.40625 64.59375 
L 9.421875 64.59375 
z
" id="DejaVuSans-105"/>
     <path d="M 44.28125 53.078125 
L 44.28125 44.578125 
Q 40.484375 46.53125 36.375 47.5 
Q 32.28125 48.484375 27.875 48.484375 
Q 21.1875 48.484375 17.84375 46.4375 
Q 14.5 44.390625 14.5 40.28125 
Q 14.5 37.15625 16.890625 35.375 
Q 19.28125 33.59375 26.515625 31.984375 
L 29.59375 31.296875 
Q 39.15625 29.25 43.1875 25.515625 
Q 47.21875 21.78125 47.21875 15.09375 
Q 47.21875 7.46875 41.1875 3.015625 
Q 35.15625 -1.421875 24.609375 -1.421875 
Q 20.21875 -1.421875 15.453125 -0.5625 
Q 10.6875 0.296875 5.421875 2 
L 5.421875 11.28125 
Q 10.40625 8.6875 15.234375 7.390625 
Q 20.0625 6.109375 24.8125 6.109375 
Q 31.15625 6.109375 34.5625 8.28125 
Q 37.984375 10.453125 37.984375 14.40625 
Q 37.984375 18.0625 35.515625 20.015625 
Q 33.0625 21.96875 24.703125 23.78125 
L 21.578125 24.515625 
Q 13.234375 26.265625 9.515625 29.90625 
Q 5.8125 33.546875 5.8125 39.890625 
Q 5.8125 47.609375 11.28125 51.796875 
Q 16.75 56 26.8125 56 
Q 31.78125 56 36.171875 55.265625 
Q 40.578125 54.546875 44.28125 53.078125 
z
" id="DejaVuSans-115"/>
     <path d="M 34.28125 27.484375 
Q 23.390625 27.484375 19.1875 25 
Q 14.984375 22.515625 14.984375 16.5 
Q 14.984375 11.71875 18.140625 8.90625 
Q 21.296875 6.109375 26.703125 6.109375 
Q 34.1875 6.109375 38.703125 11.40625 
Q 43.21875 16.703125 43.21875 25.484375 
L 43.21875 27.484375 
z
M 52.203125 31.203125 
L 52.203125 0 
L 43.21875 0 
L 43.21875 8.296875 
Q 40.140625 3.328125 35.546875 0.953125 
Q 30.953125 -1.421875 24.3125 -1.421875 
Q 15.921875 -1.421875 10.953125 3.296875 
Q 6 8.015625 6 15.921875 
Q 6 25.140625 12.171875 29.828125 
Q 18.359375 34.515625 30.609375 34.515625 
L 43.21875 34.515625 
L 43.21875 35.40625 
Q 43.21875 41.609375 39.140625 45 
Q 35.0625 48.390625 27.6875 48.390625 
Q 23 48.390625 18.546875 47.265625 
Q 14.109375 46.140625 10.015625 43.890625 
L 10.015625 52.203125 
Q 14.9375 54.109375 19.578125 55.046875 
Q 24.21875 56 28.609375 56 
Q 40.484375 56 46.34375 49.84375 
Q 52.203125 43.703125 52.203125 31.203125 
z
" id="DejaVuSans-97"/>
     <path d="M 18.3125 70.21875 
L 18.3125 54.6875 
L 36.8125 54.6875 
L 36.8125 47.703125 
L 18.3125 47.703125 
L 18.3125 18.015625 
Q 18.3125 11.328125 20.140625 9.421875 
Q 21.96875 7.515625 27.59375 7.515625 
L 36.8125 7.515625 
L 36.8125 0 
L 27.59375 0 
Q 17.1875 0 13.234375 3.875 
Q 9.28125 7.765625 9.28125 18.015625 
L 9.28125 47.703125 
L 2.6875 47.703125 
L 2.6875 54.6875 
L 9.28125 54.6875 
L 9.28125 70.21875 
z
" id="DejaVuSans-116"/>
     <path d="M 56.203125 29.59375 
L 56.203125 25.203125 
L 14.890625 25.203125 
Q 15.484375 15.921875 20.484375 11.0625 
Q 25.484375 6.203125 34.421875 6.203125 
Q 39.59375 6.203125 44.453125 7.46875 
Q 49.3125 8.734375 54.109375 11.28125 
L 54.109375 2.78125 
Q 49.265625 0.734375 44.1875 -0.34375 
Q 39.109375 -1.421875 33.890625 -1.421875 
Q 20.796875 -1.421875 13.15625 6.1875 
Q 5.515625 13.8125 5.515625 26.8125 
Q 5.515625 40.234375 12.765625 48.109375 
Q 20.015625 56 32.328125 56 
Q 43.359375 56 49.78125 48.890625 
Q 56.203125 41.796875 56.203125 29.59375 
z
M 47.21875 32.234375 
Q 47.125 39.59375 43.09375 43.984375 
Q 39.0625 48.390625 32.421875 48.390625 
Q 24.90625 48.390625 20.390625 44.140625 
Q 15.875 39.890625 15.1875 32.171875 
z
" id="DejaVuSans-101"/>
    </defs>
    <g transform="translate(272.942187 80.4)scale(0.2 -0.2)">
     <use xlink:href="#DejaVuSans-77"/>
     <use x="86.279297" xlink:href="#DejaVuSans-68"/>
     <use x="163.28125" xlink:href="#DejaVuSans-83"/>
     <use x="226.757812" xlink:href="#DejaVuSans-32"/>
     <use x="258.544922" xlink:href="#DejaVuSans-111"/>
     <use x="319.726562" xlink:href="#DejaVuSans-102"/>
     <use x="354.931641" xlink:href="#DejaVuSans-32"/>
     <use x="386.71875" xlink:href="#DejaVuSans-73"/>
     <use x="416.210938" xlink:href="#DejaVuSans-114"/>
     <use x="457.324219" xlink:href="#DejaVuSans-105"/>
     <use x="485.107422" xlink:href="#DejaVuSans-115"/>
     <use x="537.207031" xlink:href="#DejaVuSans-32"/>
     <use x="568.994141" xlink:href="#DejaVuSans-68"/>
     <use x="645.996094" xlink:href="#DejaVuSans-97"/>
     <use x="707.275391" xlink:href="#DejaVuSans-116"/>
     <use x="746.484375" xlink:href="#DejaVuSans-97"/>
     <use x="807.763672" xlink:href="#DejaVuSans-115"/>
     <use x="859.863281" xlink:href="#DejaVuSans-101"/>
     <use x="921.386719" xlink:href="#DejaVuSans-116"/>
    </g>
   </g>
   <g id="legend_1">
    <g id="patch_7">
     <path d="M 506.800781 633.3 
L 637.5 633.3 
Q 640.5 633.3 640.5 630.3 
L 640.5 565.748438 
Q 640.5 562.748438 637.5 562.748438 
L 506.800781 562.748438 
Q 503.800781 562.748438 503.800781 565.748438 
L 503.800781 630.3 
Q 503.800781 633.3 506.800781 633.3 
z
" style="fill:#ffffff;opacity:0.8;stroke:#cccccc;stroke-linejoin:miter;"/>
    </g>
    <g id="PathCollection_4">
     <g>
      <use style="fill:#ff0000;stroke:#ff0000;" x="524.800781" xlink:href="#m4551a8bfe9" y="576.208594"/>
     </g>
    </g>
    <g id="text_17">
     <!-- setosa -->
     <g transform="translate(551.800781 580.146094)scale(0.15 -0.15)">
      <use xlink:href="#DejaVuSans-115"/>
      <use x="52.099609" xlink:href="#DejaVuSans-101"/>
      <use x="113.623047" xlink:href="#DejaVuSans-116"/>
      <use x="152.832031" xlink:href="#DejaVuSans-111"/>
      <use x="214.013672" xlink:href="#DejaVuSans-115"/>
      <use x="266.113281" xlink:href="#DejaVuSans-97"/>
     </g>
    </g>
    <g id="PathCollection_5">
     <g>
      <use style="fill:#008000;stroke:#008000;" x="524.800781" xlink:href="#m1d10593f27" y="598.225781"/>
     </g>
    </g>
    <g id="text_18">
     <!-- versicolour -->
     <defs>
      <path d="M 2.984375 54.6875 
L 12.5 54.6875 
L 29.59375 8.796875 
L 46.6875 54.6875 
L 56.203125 54.6875 
L 35.6875 0 
L 23.484375 0 
z
" id="DejaVuSans-118"/>
      <path d="M 48.78125 52.59375 
L 48.78125 44.1875 
Q 44.96875 46.296875 41.140625 47.34375 
Q 37.3125 48.390625 33.40625 48.390625 
Q 24.65625 48.390625 19.8125 42.84375 
Q 14.984375 37.3125 14.984375 27.296875 
Q 14.984375 17.28125 19.8125 11.734375 
Q 24.65625 6.203125 33.40625 6.203125 
Q 37.3125 6.203125 41.140625 7.25 
Q 44.96875 8.296875 48.78125 10.40625 
L 48.78125 2.09375 
Q 45.015625 0.34375 40.984375 -0.53125 
Q 36.96875 -1.421875 32.421875 -1.421875 
Q 20.0625 -1.421875 12.78125 6.34375 
Q 5.515625 14.109375 5.515625 27.296875 
Q 5.515625 40.671875 12.859375 48.328125 
Q 20.21875 56 33.015625 56 
Q 37.15625 56 41.109375 55.140625 
Q 45.0625 54.296875 48.78125 52.59375 
z
" id="DejaVuSans-99"/>
      <path d="M 9.421875 75.984375 
L 18.40625 75.984375 
L 18.40625 0 
L 9.421875 0 
z
" id="DejaVuSans-108"/>
      <path d="M 8.5 21.578125 
L 8.5 54.6875 
L 17.484375 54.6875 
L 17.484375 21.921875 
Q 17.484375 14.15625 20.5 10.265625 
Q 23.53125 6.390625 29.59375 6.390625 
Q 36.859375 6.390625 41.078125 11.03125 
Q 45.3125 15.671875 45.3125 23.6875 
L 45.3125 54.6875 
L 54.296875 54.6875 
L 54.296875 0 
L 45.3125 0 
L 45.3125 8.40625 
Q 42.046875 3.421875 37.71875 1 
Q 33.40625 -1.421875 27.6875 -1.421875 
Q 18.265625 -1.421875 13.375 4.4375 
Q 8.5 10.296875 8.5 21.578125 
z
M 31.109375 56 
z
" id="DejaVuSans-117"/>
     </defs>
     <g transform="translate(551.800781 602.163281)scale(0.15 -0.15)">
      <use xlink:href="#DejaVuSans-118"/>
      <use x="59.179688" xlink:href="#DejaVuSans-101"/>
      <use x="120.703125" xlink:href="#DejaVuSans-114"/>
      <use x="161.816406" xlink:href="#DejaVuSans-115"/>
      <use x="213.916016" xlink:href="#DejaVuSans-105"/>
      <use x="241.699219" xlink:href="#DejaVuSans-99"/>
      <use x="296.679688" xlink:href="#DejaVuSans-111"/>
      <use x="357.861328" xlink:href="#DejaVuSans-108"/>
      <use x="385.644531" xlink:href="#DejaVuSans-111"/>
      <use x="446.826172" xlink:href="#DejaVuSans-117"/>
      <use x="510.205078" xlink:href="#DejaVuSans-114"/>
     </g>
    </g>
    <g id="PathCollection_6">
     <g>
      <use style="fill:#0000ff;stroke:#0000ff;" x="524.800781" xlink:href="#m95bd40e418" y="620.242969"/>
     </g>
    </g>
    <g id="text_19">
     <!-- virginica -->
     <defs>
      <path d="M 45.40625 27.984375 
Q 45.40625 37.75 41.375 43.109375 
Q 37.359375 48.484375 30.078125 48.484375 
Q 22.859375 48.484375 18.828125 43.109375 
Q 14.796875 37.75 14.796875 27.984375 
Q 14.796875 18.265625 18.828125 12.890625 
Q 22.859375 7.515625 30.078125 7.515625 
Q 37.359375 7.515625 41.375 12.890625 
Q 45.40625 18.265625 45.40625 27.984375 
z
M 54.390625 6.78125 
Q 54.390625 -7.171875 48.1875 -13.984375 
Q 42 -20.796875 29.203125 -20.796875 
Q 24.46875 -20.796875 20.265625 -20.09375 
Q 16.0625 -19.390625 12.109375 -17.921875 
L 12.109375 -9.1875 
Q 16.0625 -11.328125 19.921875 -12.34375 
Q 23.78125 -13.375 27.78125 -13.375 
Q 36.625 -13.375 41.015625 -8.765625 
Q 45.40625 -4.15625 45.40625 5.171875 
L 45.40625 9.625 
Q 42.625 4.78125 38.28125 2.390625 
Q 33.9375 0 27.875 0 
Q 17.828125 0 11.671875 7.65625 
Q 5.515625 15.328125 5.515625 27.984375 
Q 5.515625 40.671875 11.671875 48.328125 
Q 17.828125 56 27.875 56 
Q 33.9375 56 38.28125 53.609375 
Q 42.625 51.21875 45.40625 46.390625 
L 45.40625 54.6875 
L 54.390625 54.6875 
z
" id="DejaVuSans-103"/>
      <path d="M 54.890625 33.015625 
L 54.890625 0 
L 45.90625 0 
L 45.90625 32.71875 
Q 45.90625 40.484375 42.875 44.328125 
Q 39.84375 48.1875 33.796875 48.1875 
Q 26.515625 48.1875 22.3125 43.546875 
Q 18.109375 38.921875 18.109375 30.90625 
L 18.109375 0 
L 9.078125 0 
L 9.078125 54.6875 
L 18.109375 54.6875 
L 18.109375 46.1875 
Q 21.34375 51.125 25.703125 53.5625 
Q 30.078125 56 35.796875 56 
Q 45.21875 56 50.046875 50.171875 
Q 54.890625 44.34375 54.890625 33.015625 
z
" id="DejaVuSans-110"/>
     </defs>
     <g transform="translate(551.800781 624.180469)scale(0.15 -0.15)">
      <use xlink:href="#DejaVuSans-118"/>
      <use x="59.179688" xlink:href="#DejaVuSans-105"/>
      <use x="86.962891" xlink:href="#DejaVuSans-114"/>
      <use x="128.060547" xlink:href="#DejaVuSans-103"/>
      <use x="191.537109" xlink:href="#DejaVuSans-105"/>
      <use x="219.320312" xlink:href="#DejaVuSans-110"/>
      <use x="282.699219" xlink:href="#DejaVuSans-105"/>
      <use x="310.482422" xlink:href="#DejaVuSans-99"/>
      <use x="365.462891" xlink:href="#DejaVuSans-97"/>
     </g>
    </g>
   </g>
  </g>
 </g>
 <defs>
  <clipPath id="p37ac8d7f97">
   <rect height="554.4" width="558" x="90" y="86.4"/>
  </clipPath>
 </defs>
</svg>
