<?xml version="1.0" encoding="utf-8" standalone="no"?>
<!DOCTYPE svg PUBLIC "-//W3C//DTD SVG 1.1//EN"
  "http://www.w3.org/Graphics/SVG/1.1/DTD/svg11.dtd">
<!-- Created with matplotlib (https://matplotlib.org/) -->
<svg height="720pt" version="1.1" viewBox="0 0 720 720" width="720pt" xmlns="http://www.w3.org/2000/svg" xmlns:xlink="http://www.w3.org/1999/xlink">
 <defs>
  <style type="text/css">
*{stroke-linecap:butt;stroke-linejoin:round;}
  </style>
 </defs>
 <g id="figure_1">
  <g id="patch_1">
   <path d="M 0 720 
L 720 720 
L 720 0 
L 0 0 
z
" style="fill:#ffffff;"/>
  </g>
  <g id="axes_1">
   <g id="patch_2">
    <path d="M 90 640.8 
L 648 640.8 
L 648 86.4 
L 90 86.4 
z
" style="fill:#ffffff;"/>
   </g>
   <g id="PathCollection_1">
    <defs>
     <path d="M 0 3.535534 
C 0.937635 3.535534 1.836992 3.163008 2.5 2.5 
C 3.163008 1.836992 3.535534 0.937635 3.535534 0 
C 3.535534 -0.937635 3.163008 -1.836992 2.5 -2.5 
C 1.836992 -3.163008 0.937635 -3.535534 0 -3.535534 
C -0.937635 -3.535534 -1.836992 -3.163008 -2.5 -2.5 
C -3.163008 -1.836992 -3.535534 -0.937635 -3.535534 0 
C -3.535534 0.937635 -3.163008 1.836992 -2.5 2.5 
C -1.836992 3.163008 -0.937635 3.535534 0 3.535534 
z
" id="mc04e8200f9" style="stroke:#ff0000;"/>
    </defs>
    <g clip-path="url(#p2eeffc7492)">
     <use style="fill:#ff0000;stroke:#ff0000;" x="158.051856" xlink:href="#mc04e8200f9" y="319.084473"/>
     <use style="fill:#ff0000;stroke:#ff0000;" x="173.305737" xlink:href="#mc04e8200f9" y="427.400446"/>
     <use style="fill:#ff0000;stroke:#ff0000;" x="149.789378" xlink:href="#mc04e8200f9" y="396.221643"/>
     <use style="fill:#ff0000;stroke:#ff0000;" x="155.172672" xlink:href="#mc04e8200f9" y="420.198616"/>
     <use style="fill:#ff0000;stroke:#ff0000;" x="147.663027" xlink:href="#mc04e8200f9" y="303.429752"/>
     <use style="fill:#ff0000;stroke:#ff0000;" x="173.74824" xlink:href="#mc04e8200f9" y="224.377371"/>
     <use style="fill:#ff0000;stroke:#ff0000;" x="143.164553" xlink:href="#mc04e8200f9" y="359.662828"/>
     <use style="fill:#ff0000;stroke:#ff0000;" x="160.696451" xlink:href="#mc04e8200f9" y="343.192087"/>
     <use style="fill:#ff0000;stroke:#ff0000;" x="152.245765" xlink:href="#mc04e8200f9" y="468.805765"/>
     <use style="fill:#ff0000;stroke:#ff0000;" x="164.724404" xlink:href="#mc04e8200f9" y="408.150282"/>
     <use style="fill:#ff0000;stroke:#ff0000;" x="166.22023" xlink:href="#mc04e8200f9" y="266.185558"/>
     <use style="fill:#ff0000;stroke:#ff0000;" x="152.952217" xlink:href="#mc04e8200f9" y="351.644979"/>
     <use style="fill:#ff0000;stroke:#ff0000;" x="161.891601" xlink:href="#mc04e8200f9" y="432.519177"/>
     <use style="fill:#ff0000;stroke:#ff0000;" x="127.46817" xlink:href="#mc04e8200f9" y="454.36993"/>
     <use style="fill:#ff0000;stroke:#ff0000;" x="163.527912" xlink:href="#mc04e8200f9" y="189.570951"/>
     <use style="fill:#ff0000;stroke:#ff0000;" x="158.258428" xlink:href="#mc04e8200f9" y="112.030914"/>
     <use style="fill:#ff0000;stroke:#ff0000;" x="162.793444" xlink:href="#mc04e8200f9" y="224.899934"/>
     <use style="fill:#ff0000;stroke:#ff0000;" x="164.224525" xlink:href="#mc04e8200f9" y="318.257509"/>
     <use style="fill:#ff0000;stroke:#ff0000;" x="188.447335" xlink:href="#mc04e8200f9" y="232.275525"/>
     <use style="fill:#ff0000;stroke:#ff0000;" x="151.521136" xlink:href="#mc04e8200f9" y="258.287404"/>
     <use style="fill:#ff0000;stroke:#ff0000;" x="187.139717" xlink:href="#mc04e8200f9" y="325.763741"/>
     <use style="fill:#ff0000;stroke:#ff0000;" x="162.841167" xlink:href="#mc04e8200f9" y="277.406927"/>
     <use style="fill:#ff0000;stroke:#ff0000;" x="115.742363" xlink:href="#mc04e8200f9" y="321.11938"/>
     <use style="fill:#ff0000;stroke:#ff0000;" x="195.080684" xlink:href="#mc04e8200f9" y="356.104633"/>
     <use style="fill:#ff0000;stroke:#ff0000;" x="161.168314" xlink:href="#mc04e8200f9" y="351.253057"/>
     <use style="fill:#ff0000;stroke:#ff0000;" x="184.024602" xlink:href="#mc04e8200f9" y="422.847398"/>
     <use style="fill:#ff0000;stroke:#ff0000;" x="175.780487" xlink:href="#mc04e8200f9" y="341.407517"/>
     <use style="fill:#ff0000;stroke:#ff0000;" x="166.032022" xlink:href="#mc04e8200f9" y="314.662067"/>
     <use style="fill:#ff0000;stroke:#ff0000;" x="168.440686" xlink:href="#mc04e8200f9" y="334.739195"/>
     <use style="fill:#ff0000;stroke:#ff0000;" x="158.005475" xlink:href="#mc04e8200f9" y="395.829721"/>
     <use style="fill:#ff0000;stroke:#ff0000;" x="168.394305" xlink:href="#mc04e8200f9" y="411.484443"/>
     <use style="fill:#ff0000;stroke:#ff0000;" x="194.007656" xlink:href="#mc04e8200f9" y="324.371092"/>
     <use style="fill:#ff0000;stroke:#ff0000;" x="128.975177" xlink:href="#mc04e8200f9" y="195.810104"/>
     <use style="fill:#ff0000;stroke:#ff0000;" x="142.986184" xlink:href="#mc04e8200f9" y="162.291993"/>
     <use style="fill:#ff0000;stroke:#ff0000;" x="170.897073" xlink:href="#mc04e8200f9" y="407.323317"/>
     <use style="fill:#ff0000;stroke:#ff0000;" x="162.77508" xlink:href="#mc04e8200f9" y="383.476985"/>
     <use style="fill:#ff0000;stroke:#ff0000;" x="176.279025" xlink:href="#mc04e8200f9" y="302.048049"/>
     <use style="fill:#ff0000;stroke:#ff0000;" x="136.248892" xlink:href="#mc04e8200f9" y="308.548483"/>
     <use style="fill:#ff0000;stroke:#ff0000;" x="144.359703" xlink:href="#mc04e8200f9" y="448.989918"/>
     <use style="fill:#ff0000;stroke:#ff0000;" x="165.937918" xlink:href="#mc04e8200f9" y="338.900321"/>
     <use style="fill:#ff0000;stroke:#ff0000;" x="156.244359" xlink:href="#mc04e8200f9" y="322.679915"/>
     <use style="fill:#ff0000;stroke:#ff0000;" x="191.805378" xlink:href="#mc04e8200f9" y="583.496602"/>
     <use style="fill:#ff0000;stroke:#ff0000;" x="134.064978" xlink:href="#mc04e8200f9" y="409.096942"/>
     <use style="fill:#ff0000;stroke:#ff0000;" x="182.978461" xlink:href="#mc04e8200f9" y="319.807099"/>
     <use style="fill:#ff0000;stroke:#ff0000;" x="168.6486" xlink:href="#mc04e8200f9" y="256.937877"/>
     <use style="fill:#ff0000;stroke:#ff0000;" x="174.236938" xlink:href="#mc04e8200f9" y="430.865247"/>
     <use style="fill:#ff0000;stroke:#ff0000;" x="148.087166" xlink:href="#mc04e8200f9" y="258.983729"/>
     <use style="fill:#ff0000;stroke:#ff0000;" x="147.28661" xlink:href="#mc04e8200f9" y="400.382769"/>
     <use style="fill:#ff0000;stroke:#ff0000;" x="160.978764" xlink:href="#mc04e8200f9" y="270.477324"/>
     <use style="fill:#ff0000;stroke:#ff0000;" x="163.105115" xlink:href="#mc04e8200f9" y="363.269216"/>
    </g>
   </g>
   <g id="PathCollection_2">
    <defs>
     <path d="M 0 3.535534 
C 0.937635 3.535534 1.836992 3.163008 2.5 2.5 
C 3.163008 1.836992 3.535534 0.937635 3.535534 0 
C 3.535534 -0.937635 3.163008 -1.836992 2.5 -2.5 
C 1.836992 -3.163008 0.937635 -3.535534 0 -3.535534 
C -0.937635 -3.535534 -1.836992 -3.163008 -2.5 -2.5 
C -3.163008 -1.836992 -3.535534 -0.937635 -3.535534 0 
C -3.535534 0.937635 -3.163008 1.836992 -2.5 2.5 
C -1.836992 3.163008 -0.937635 3.535534 0 3.535534 
z
" id="mcf6d17c163" style="stroke:#008000;"/>
    </defs>
    <g clip-path="url(#p2eeffc7492)">
     <use style="fill:#008000;stroke:#008000;" x="437.530905" xlink:href="#mcf6d17c163" y="283.145658"/>
     <use style="fill:#008000;stroke:#008000;" x="406.777374" xlink:href="#mcf6d17c163" y="308.330572"/>
     <use style="fill:#008000;stroke:#008000;" x="449.086867" xlink:href="#mcf6d17c163" y="306.295666"/>
     <use style="fill:#008000;stroke:#008000;" x="379.891605" xlink:href="#mcf6d17c163" y="528.781993"/>
     <use style="fill:#008000;stroke:#008000;" x="435.346991" xlink:href="#mcf6d17c163" y="383.694117"/>
     <use style="fill:#008000;stroke:#008000;" x="378.331221" xlink:href="#mcf6d17c163" y="419.812818"/>
     <use style="fill:#008000;stroke:#008000;" x="408.038611" xlink:href="#mcf6d17c163" y="291.587604"/>
     <use style="fill:#008000;stroke:#008000;" x="305.606543" xlink:href="#mcf6d17c163" y="537.981482"/>
     <use style="fill:#008000;stroke:#008000;" x="423.095758" xlink:href="#mcf6d17c163" y="361.109792"/>
     <use style="fill:#008000;stroke:#008000;" x="347.011723" xlink:href="#mcf6d17c163" y="461.175016"/>
     <use style="fill:#008000;stroke:#008000;" x="336.914859" xlink:href="#mcf6d17c163" y="613.214386"/>
     <use style="fill:#008000;stroke:#008000;" x="382.648668" xlink:href="#mcf6d17c163" y="370.074301"/>
     <use style="fill:#008000;stroke:#008000;" x="392.728297" xlink:href="#mcf6d17c163" y="529.750544"/>
     <use style="fill:#008000;stroke:#008000;" x="405.799792" xlink:href="#mcf6d17c163" y="381.611018"/>
     <use style="fill:#008000;stroke:#008000;" x="343.294099" xlink:href="#mcf6d17c163" y="405.333861"/>
     <use style="fill:#008000;stroke:#008000;" x="418.73777" xlink:href="#mcf6d17c163" y="316.359366"/>
     <use style="fill:#008000;stroke:#008000;" x="375.140365" xlink:href="#mcf6d17c163" y="382.557678"/>
     <use style="fill:#008000;stroke:#008000;" x="359.247249" xlink:href="#mcf6d17c163" y="438.470997"/>
     <use style="fill:#008000;stroke:#008000;" x="447.768068" xlink:href="#mcf6d17c163" y="516.378983"/>
     <use style="fill:#008000;stroke:#008000;" x="359.754311" xlink:href="#mcf6d17c163" y="486.381821"/>
     <use style="fill:#008000;stroke:#008000;" x="407.304143" xlink:href="#mcf6d17c163" y="326.916587"/>
     <use style="fill:#008000;stroke:#008000;" x="385.603593" xlink:href="#mcf6d17c163" y="403.298955"/>
     <use style="fill:#008000;stroke:#008000;" x="448.522243" xlink:href="#mcf6d17c163" y="451.725191"/>
     <use style="fill:#008000;stroke:#008000;" x="398.601818" xlink:href="#mcf6d17c163" y="403.211436"/>
     <use style="fill:#008000;stroke:#008000;" x="404.396728" xlink:href="#mcf6d17c163" y="370.085247"/>
     <use style="fill:#008000;stroke:#008000;" x="418.643666" xlink:href="#mcf6d17c163" y="340.597621"/>
     <use style="fill:#008000;stroke:#008000;" x="450.376121" xlink:href="#mcf6d17c163" y="371.384501"/>
     <use style="fill:#008000;stroke:#008000;" x="458.835333" xlink:href="#mcf6d17c163" y="333.041116"/>
     <use style="fill:#008000;stroke:#008000;" x="401.253595" xlink:href="#mcf6d17c163" y="385.337101"/>
     <use style="fill:#008000;stroke:#008000;" x="342.72095" xlink:href="#mcf6d17c163" y="463.493094"/>
     <use style="fill:#008000;stroke:#008000;" x="356.921508" xlink:href="#mcf6d17c163" y="510.750716"/>
     <use style="fill:#008000;stroke:#008000;" x="348.01014" xlink:href="#mcf6d17c163" y="511.708321"/>
     <use style="fill:#008000;stroke:#008000;" x="366.115187" xlink:href="#mcf6d17c163" y="437.078348"/>
     <use style="fill:#008000;stroke:#008000;" x="434.153184" xlink:href="#mcf6d17c163" y="423.619268"/>
     <use style="fill:#008000;stroke:#008000;" x="364.657431" xlink:href="#mcf6d17c163" y="391.141211"/>
     <use style="fill:#008000;stroke:#008000;" x="381.68945" xlink:href="#mcf6d17c163" y="284.777697"/>
     <use style="fill:#008000;stroke:#008000;" x="433.126536" xlink:href="#mcf6d17c163" y="315.14048"/>
     <use style="fill:#008000;stroke:#008000;" x="432.778136" xlink:href="#mcf6d17c163" y="493.9253"/>
     <use style="fill:#008000;stroke:#008000;" x="351.840232" xlink:href="#mcf6d17c163" y="384.734171"/>
     <use style="fill:#008000;stroke:#008000;" x="369.59688" xlink:href="#mcf6d17c163" y="488.889017"/>
     <use style="fill:#008000;stroke:#008000;" x="369.231645" xlink:href="#mcf6d17c163" y="469.246932"/>
     <use style="fill:#008000;stroke:#008000;" x="397.91373" xlink:href="#mcf6d17c163" y="361.795171"/>
     <use style="fill:#008000;stroke:#008000;" x="374.001249" xlink:href="#mcf6d17c163" y="456.894195"/>
     <use style="fill:#008000;stroke:#008000;" x="315.995373" xlink:href="#mcf6d17c163" y="553.636203"/>
     <use style="fill:#008000;stroke:#008000;" x="370.021019" xlink:href="#mcf6d17c163" y="444.442994"/>
     <use style="fill:#008000;stroke:#008000;" x="353.647729" xlink:href="#mcf6d17c163" y="381.138729"/>
     <use style="fill:#008000;stroke:#008000;" x="364.967761" xlink:href="#mcf6d17c163" y="400.258252"/>
     <use style="fill:#008000;stroke:#008000;" x="393.913794" xlink:href="#mcf6d17c163" y="378.668779"/>
     <use style="fill:#008000;stroke:#008000;" x="308.898685" xlink:href="#mcf6d17c163" y="509.016418"/>
     <use style="fill:#008000;stroke:#008000;" x="367.376424" xlink:href="#mcf6d17c163" y="420.33538"/>
    </g>
   </g>
   <g id="PathCollection_3">
    <defs>
     <path d="M 0 3.535534 
C 0.937635 3.535534 1.836992 3.163008 2.5 2.5 
C 3.163008 1.836992 3.535534 0.937635 3.535534 0 
C 3.535534 -0.937635 3.163008 -1.836992 2.5 -2.5 
C 1.836992 -3.163008 0.937635 -3.535534 0 -3.535534 
C -0.937635 -3.535534 -1.836992 -3.163008 -2.5 -2.5 
C -3.163008 -1.836992 -3.535534 -0.937635 -3.535534 0 
C -3.535534 0.937635 -3.163008 1.836992 -2.5 2.5 
C -1.836992 3.163008 -0.937635 3.535534 0 3.535534 
z
" id="mc620b20dcf" style="stroke:#0000ff;"/>
    </defs>
    <g clip-path="url(#p2eeffc7492)">
     <use style="fill:#0000ff;stroke:#0000ff;" x="499.195715" xlink:href="#mc620b20dcf" y="282.446592"/>
     <use style="fill:#0000ff;stroke:#0000ff;" x="442.188255" xlink:href="#mc620b20dcf" y="429.721906"/>
     <use style="fill:#0000ff;stroke:#0000ff;" x="529.140165" xlink:href="#mc620b20dcf" y="311.390425"/>
     <use style="fill:#0000ff;stroke:#0000ff;" x="465.621691" xlink:href="#mc620b20dcf" y="368.54386"/>
     <use style="fill:#0000ff;stroke:#0000ff;" x="501.125333" xlink:href="#mc620b20dcf" y="336.444699"/>
     <use style="fill:#0000ff;stroke:#0000ff;" x="574.518393" xlink:href="#mc620b20dcf" y="289.01711"/>
     <use style="fill:#0000ff;stroke:#0000ff;" x="376.532248" xlink:href="#mc620b20dcf" y="510.678552"/>
     <use style="fill:#0000ff;stroke:#0000ff;" x="537.207253" xlink:href="#mc620b20dcf" y="324.711713"/>
     <use style="fill:#0000ff;stroke:#0000ff;" x="512.654407" xlink:href="#mc620b20dcf" y="430.901466"/>
     <use style="fill:#0000ff;stroke:#0000ff;" x="533.665527" xlink:href="#mc620b20dcf" y="183.850591"/>
     <use style="fill:#0000ff;stroke:#0000ff;" x="459.314378" xlink:href="#mc620b20dcf" y="299.120137"/>
     <use style="fill:#0000ff;stroke:#0000ff;" x="479.114454" xlink:href="#mc620b20dcf" y="403.710027"/>
     <use style="fill:#0000ff;stroke:#0000ff;" x="502.460968" xlink:href="#mc620b20dcf" y="324.788287"/>
     <use style="fill:#0000ff;stroke:#0000ff;" x="450.675483" xlink:href="#mc620b20dcf" y="473.210324"/>
     <use style="fill:#0000ff;stroke:#0000ff;" x="467.904235" xlink:href="#mc620b20dcf" y="405.640593"/>
     <use style="fill:#0000ff;stroke:#0000ff;" x="478.068314" xlink:href="#mc620b20dcf" y="300.669727"/>
     <use style="fill:#0000ff;stroke:#0000ff;" x="468.218563" xlink:href="#mc620b20dcf" y="340.144481"/>
     <use style="fill:#0000ff;stroke:#0000ff;" x="547.492325" xlink:href="#mc620b20dcf" y="124.195835"/>
     <use style="fill:#0000ff;stroke:#0000ff;" x="620.910745" xlink:href="#mc620b20dcf" y="362.465443"/>
     <use style="fill:#0000ff;stroke:#0000ff;" x="450.97863" xlink:href="#mc620b20dcf" y="524.309313"/>
     <use style="fill:#0000ff;stroke:#0000ff;" x="515.230445" xlink:href="#mc620b20dcf" y="278.688334"/>
     <use style="fill:#0000ff;stroke:#0000ff;" x="427.253229" xlink:href="#mc620b20dcf" y="417.793267"/>
     <use style="fill:#0000ff;stroke:#0000ff;" x="586.620616" xlink:href="#mc620b20dcf" y="325.314643"/>
     <use style="fill:#0000ff;stroke:#0000ff;" x="456.745523" xlink:href="#mc620b20dcf" y="409.35132"/>
     <use style="fill:#0000ff;stroke:#0000ff;" x="487.254811" xlink:href="#mc620b20dcf" y="268.979308"/>
     <use style="fill:#0000ff;stroke:#0000ff;" x="508.3076" xlink:href="#mc620b20dcf" y="269.555938"/>
     <use style="fill:#0000ff;stroke:#0000ff;" x="443.617994" xlink:href="#mc620b20dcf" y="393.827239"/>
     <use style="fill:#0000ff;stroke:#0000ff;" x="430.820501" xlink:href="#mc620b20dcf" y="358.095389"/>
     <use style="fill:#0000ff;stroke:#0000ff;" x="494.528526" xlink:href="#mc620b20dcf" y="381.717687"/>
     <use style="fill:#0000ff;stroke:#0000ff;" x="500.779591" xlink:href="#mc620b20dcf" y="311.364125"/>
     <use style="fill:#0000ff;stroke:#0000ff;" x="548.291353" xlink:href="#mc620b20dcf" y="339.800751"/>
     <use style="fill:#0000ff;stroke:#0000ff;" x="537.413825" xlink:href="#mc620b20dcf" y="117.658154"/>
     <use style="fill:#0000ff;stroke:#0000ff;" x="500.701194" xlink:href="#mc620b20dcf" y="380.890722"/>
     <use style="fill:#0000ff;stroke:#0000ff;" x="438.557553" xlink:href="#mc620b20dcf" y="391.624446"/>
     <use style="fill:#0000ff;stroke:#0000ff;" x="445.890172" xlink:href="#mc620b20dcf" y="440.274717"/>
     <use style="fill:#0000ff;stroke:#0000ff;" x="578.411701" xlink:href="#mc620b20dcf" y="283.724616"/>
     <use style="fill:#0000ff;stroke:#0000ff;" x="476.920887" xlink:href="#mc620b20dcf" y="263.849631"/>
     <use style="fill:#0000ff;stroke:#0000ff;" x="457.829733" xlink:href="#mc620b20dcf" y="324.489759"/>
     <use style="fill:#0000ff;stroke:#0000ff;" x="422.840335" xlink:href="#mc620b20dcf" y="362.517796"/>
     <use style="fill:#0000ff;stroke:#0000ff;" x="499.816373" xlink:href="#mc620b20dcf" y="300.680673"/>
     <use style="fill:#0000ff;stroke:#0000ff;" x="513.328843" xlink:href="#mc620b20dcf" y="306.52203"/>
     <use style="fill:#0000ff;stroke:#0000ff;" x="503.945613" xlink:href="#mc620b20dcf" y="299.418665"/>
     <use style="fill:#0000ff;stroke:#0000ff;" x="442.188255" xlink:href="#mc620b20dcf" y="429.721906"/>
     <use style="fill:#0000ff;stroke:#0000ff;" x="515.466376" xlink:href="#mc620b20dcf" y="282.718819"/>
     <use style="fill:#0000ff;stroke:#0000ff;" x="511.945485" xlink:href="#mc620b20dcf" y="265.671448"/>
     <use style="fill:#0000ff;stroke:#0000ff;" x="501.348741" xlink:href="#mc620b20dcf" y="327.818045"/>
     <use style="fill:#0000ff;stroke:#0000ff;" x="475.951616" xlink:href="#mc620b20dcf" y="448.286691"/>
     <use style="fill:#0000ff;stroke:#0000ff;" x="472.347802" xlink:href="#mc620b20dcf" y="338.882472"/>
     <use style="fill:#0000ff;stroke:#0000ff;" x="460.029354" xlink:href="#mc620b20dcf" y="269.229644"/>
     <use style="fill:#0000ff;stroke:#0000ff;" x="425.814965" xlink:href="#mc620b20dcf" y="366.417641"/>
    </g>
   </g>
   <g id="matplotlib.axis_1">
    <g id="xtick_1">
     <g id="line2d_1">
      <defs>
       <path d="M 0 0 
L 0 3.5 
" id="md3fe3ad015" style="stroke:#000000;stroke-width:0.8;"/>
      </defs>
      <g>
       <use style="stroke:#000000;stroke-width:0.8;" x="97.008893" xlink:href="#md3fe3ad015" y="640.8"/>
      </g>
     </g>
     <g id="text_1">
      <!-- −3 -->
      <defs>
       <path d="M 10.59375 35.5 
L 73.1875 35.5 
L 73.1875 27.203125 
L 10.59375 27.203125 
z
" id="DejaVuSans-8722"/>
       <path d="M 40.578125 39.3125 
Q 47.65625 37.796875 51.625 33 
Q 55.609375 28.21875 55.609375 21.1875 
Q 55.609375 10.40625 48.1875 4.484375 
Q 40.765625 -1.421875 27.09375 -1.421875 
Q 22.515625 -1.421875 17.65625 -0.515625 
Q 12.796875 0.390625 7.625 2.203125 
L 7.625 11.71875 
Q 11.71875 9.328125 16.59375 8.109375 
Q 21.484375 6.890625 26.8125 6.890625 
Q 36.078125 6.890625 40.9375 10.546875 
Q 45.796875 14.203125 45.796875 21.1875 
Q 45.796875 27.640625 41.28125 31.265625 
Q 36.765625 34.90625 28.71875 34.90625 
L 20.21875 34.90625 
L 20.21875 43.015625 
L 29.109375 43.015625 
Q 36.375 43.015625 40.234375 45.921875 
Q 44.09375 48.828125 44.09375 54.296875 
Q 44.09375 59.90625 40.109375 62.90625 
Q 36.140625 65.921875 28.71875 65.921875 
Q 24.65625 65.921875 20.015625 65.03125 
Q 15.375 64.15625 9.8125 62.3125 
L 9.8125 71.09375 
Q 15.4375 72.65625 20.34375 73.4375 
Q 25.25 74.21875 29.59375 74.21875 
Q 40.828125 74.21875 47.359375 69.109375 
Q 53.90625 64.015625 53.90625 55.328125 
Q 53.90625 49.265625 50.4375 45.09375 
Q 46.96875 40.921875 40.578125 39.3125 
z
" id="DejaVuSans-51"/>
      </defs>
      <g transform="translate(88.16358 656.918125)scale(0.12 -0.12)">
       <use xlink:href="#DejaVuSans-8722"/>
       <use x="83.789062" xlink:href="#DejaVuSans-51"/>
      </g>
     </g>
    </g>
    <g id="xtick_2">
     <g id="line2d_2">
      <g>
       <use style="stroke:#000000;stroke-width:0.8;" x="180.026976" xlink:href="#md3fe3ad015" y="640.8"/>
      </g>
     </g>
     <g id="text_2">
      <!-- −2 -->
      <defs>
       <path d="M 19.1875 8.296875 
L 53.609375 8.296875 
L 53.609375 0 
L 7.328125 0 
L 7.328125 8.296875 
Q 12.9375 14.109375 22.625 23.890625 
Q 32.328125 33.6875 34.8125 36.53125 
Q 39.546875 41.84375 41.421875 45.53125 
Q 43.3125 49.21875 43.3125 52.78125 
Q 43.3125 58.59375 39.234375 62.25 
Q 35.15625 65.921875 28.609375 65.921875 
Q 23.96875 65.921875 18.8125 64.3125 
Q 13.671875 62.703125 7.8125 59.421875 
L 7.8125 69.390625 
Q 13.765625 71.78125 18.9375 73 
Q 24.125 74.21875 28.421875 74.21875 
Q 39.75 74.21875 46.484375 68.546875 
Q 53.21875 62.890625 53.21875 53.421875 
Q 53.21875 48.921875 51.53125 44.890625 
Q 49.859375 40.875 45.40625 35.40625 
Q 44.1875 33.984375 37.640625 27.21875 
Q 31.109375 20.453125 19.1875 8.296875 
z
" id="DejaVuSans-50"/>
      </defs>
      <g transform="translate(171.181664 656.918125)scale(0.12 -0.12)">
       <use xlink:href="#DejaVuSans-8722"/>
       <use x="83.789062" xlink:href="#DejaVuSans-50"/>
      </g>
     </g>
    </g>
    <g id="xtick_3">
     <g id="line2d_3">
      <g>
       <use style="stroke:#000000;stroke-width:0.8;" x="263.04506" xlink:href="#md3fe3ad015" y="640.8"/>
      </g>
     </g>
     <g id="text_3">
      <!-- −1 -->
      <defs>
       <path d="M 12.40625 8.296875 
L 28.515625 8.296875 
L 28.515625 63.921875 
L 10.984375 60.40625 
L 10.984375 69.390625 
L 28.421875 72.90625 
L 38.28125 72.90625 
L 38.28125 8.296875 
L 54.390625 8.296875 
L 54.390625 0 
L 12.40625 0 
z
" id="DejaVuSans-49"/>
      </defs>
      <g transform="translate(254.199747 656.918125)scale(0.12 -0.12)">
       <use xlink:href="#DejaVuSans-8722"/>
       <use x="83.789062" xlink:href="#DejaVuSans-49"/>
      </g>
     </g>
    </g>
    <g id="xtick_4">
     <g id="line2d_4">
      <g>
       <use style="stroke:#000000;stroke-width:0.8;" x="346.063143" xlink:href="#md3fe3ad015" y="640.8"/>
      </g>
     </g>
     <g id="text_4">
      <!-- 0 -->
      <defs>
       <path d="M 31.78125 66.40625 
Q 24.171875 66.40625 20.328125 58.90625 
Q 16.5 51.421875 16.5 36.375 
Q 16.5 21.390625 20.328125 13.890625 
Q 24.171875 6.390625 31.78125 6.390625 
Q 39.453125 6.390625 43.28125 13.890625 
Q 47.125 21.390625 47.125 36.375 
Q 47.125 51.421875 43.28125 58.90625 
Q 39.453125 66.40625 31.78125 66.40625 
z
M 31.78125 74.21875 
Q 44.046875 74.21875 50.515625 64.515625 
Q 56.984375 54.828125 56.984375 36.375 
Q 56.984375 17.96875 50.515625 8.265625 
Q 44.046875 -1.421875 31.78125 -1.421875 
Q 19.53125 -1.421875 13.0625 8.265625 
Q 6.59375 17.96875 6.59375 36.375 
Q 6.59375 54.828125 13.0625 64.515625 
Q 19.53125 74.21875 31.78125 74.21875 
z
" id="DejaVuSans-48"/>
      </defs>
      <g transform="translate(342.245643 656.918125)scale(0.12 -0.12)">
       <use xlink:href="#DejaVuSans-48"/>
      </g>
     </g>
    </g>
    <g id="xtick_5">
     <g id="line2d_5">
      <g>
       <use style="stroke:#000000;stroke-width:0.8;" x="429.081226" xlink:href="#md3fe3ad015" y="640.8"/>
      </g>
     </g>
     <g id="text_5">
      <!-- 1 -->
      <g transform="translate(425.263726 656.918125)scale(0.12 -0.12)">
       <use xlink:href="#DejaVuSans-49"/>
      </g>
     </g>
    </g>
    <g id="xtick_6">
     <g id="line2d_6">
      <g>
       <use style="stroke:#000000;stroke-width:0.8;" x="512.09931" xlink:href="#md3fe3ad015" y="640.8"/>
      </g>
     </g>
     <g id="text_6">
      <!-- 2 -->
      <g transform="translate(508.28181 656.918125)scale(0.12 -0.12)">
       <use xlink:href="#DejaVuSans-50"/>
      </g>
     </g>
    </g>
    <g id="xtick_7">
     <g id="line2d_7">
      <g>
       <use style="stroke:#000000;stroke-width:0.8;" x="595.117393" xlink:href="#md3fe3ad015" y="640.8"/>
      </g>
     </g>
     <g id="text_7">
      <!-- 3 -->
      <g transform="translate(591.299893 656.918125)scale(0.12 -0.12)">
       <use xlink:href="#DejaVuSans-51"/>
      </g>
     </g>
    </g>
    <g id="text_8">
     <!-- PC 1 -->
     <defs>
      <path d="M 19.671875 64.796875 
L 19.671875 37.40625 
L 32.078125 37.40625 
Q 38.96875 37.40625 42.71875 40.96875 
Q 46.484375 44.53125 46.484375 51.125 
Q 46.484375 57.671875 42.71875 61.234375 
Q 38.96875 64.796875 32.078125 64.796875 
z
M 9.8125 72.90625 
L 32.078125 72.90625 
Q 44.34375 72.90625 50.609375 67.359375 
Q 56.890625 61.8125 56.890625 51.125 
Q 56.890625 40.328125 50.609375 34.8125 
Q 44.34375 29.296875 32.078125 29.296875 
L 19.671875 29.296875 
L 19.671875 0 
L 9.8125 0 
z
" id="DejaVuSans-80"/>
      <path d="M 64.40625 67.28125 
L 64.40625 56.890625 
Q 59.421875 61.53125 53.78125 63.8125 
Q 48.140625 66.109375 41.796875 66.109375 
Q 29.296875 66.109375 22.65625 58.46875 
Q 16.015625 50.828125 16.015625 36.375 
Q 16.015625 21.96875 22.65625 14.328125 
Q 29.296875 6.6875 41.796875 6.6875 
Q 48.140625 6.6875 53.78125 8.984375 
Q 59.421875 11.28125 64.40625 15.921875 
L 64.40625 5.609375 
Q 59.234375 2.09375 53.4375 0.328125 
Q 47.65625 -1.421875 41.21875 -1.421875 
Q 24.65625 -1.421875 15.125 8.703125 
Q 5.609375 18.84375 5.609375 36.375 
Q 5.609375 53.953125 15.125 64.078125 
Q 24.65625 74.21875 41.21875 74.21875 
Q 47.75 74.21875 53.53125 72.484375 
Q 59.328125 70.75 64.40625 67.28125 
z
" id="DejaVuSans-67"/>
      <path id="DejaVuSans-32"/>
     </defs>
     <g transform="translate(352.085156 674.811406)scale(0.15 -0.15)">
      <use xlink:href="#DejaVuSans-80"/>
      <use x="60.302734" xlink:href="#DejaVuSans-67"/>
      <use x="130.126953" xlink:href="#DejaVuSans-32"/>
      <use x="161.914062" xlink:href="#DejaVuSans-49"/>
     </g>
    </g>
   </g>
   <g id="matplotlib.axis_2">
    <g id="ytick_1">
     <g id="line2d_8">
      <defs>
       <path d="M 0 0 
L -3.5 0 
" id="m9bd761779c" style="stroke:#000000;stroke-width:0.8;"/>
      </defs>
      <g>
       <use style="stroke:#000000;stroke-width:0.8;" x="90" xlink:href="#m9bd761779c" y="551.830762"/>
      </g>
     </g>
     <g id="text_9">
      <!-- −2 -->
      <g transform="translate(62.360937 557.149668)scale(0.14 -0.14)">
       <use xlink:href="#DejaVuSans-8722"/>
       <use x="83.789062" xlink:href="#DejaVuSans-50"/>
      </g>
     </g>
    </g>
    <g id="ytick_2">
     <g id="line2d_9">
      <g>
       <use style="stroke:#000000;stroke-width:0.8;" x="90" xlink:href="#m9bd761779c" y="457.982458"/>
      </g>
     </g>
     <g id="text_10">
      <!-- −1 -->
      <g transform="translate(62.360937 463.301365)scale(0.14 -0.14)">
       <use xlink:href="#DejaVuSans-8722"/>
       <use x="83.789062" xlink:href="#DejaVuSans-49"/>
      </g>
     </g>
    </g>
    <g id="ytick_3">
     <g id="line2d_10">
      <g>
       <use style="stroke:#000000;stroke-width:0.8;" x="90" xlink:href="#m9bd761779c" y="364.134155"/>
      </g>
     </g>
     <g id="text_11">
      <!-- 0 -->
      <g transform="translate(74.0925 369.453061)scale(0.14 -0.14)">
       <use xlink:href="#DejaVuSans-48"/>
      </g>
     </g>
    </g>
    <g id="ytick_4">
     <g id="line2d_11">
      <g>
       <use style="stroke:#000000;stroke-width:0.8;" x="90" xlink:href="#m9bd761779c" y="270.285852"/>
      </g>
     </g>
     <g id="text_12">
      <!-- 1 -->
      <g transform="translate(74.0925 275.604758)scale(0.14 -0.14)">
       <use xlink:href="#DejaVuSans-49"/>
      </g>
     </g>
    </g>
    <g id="ytick_5">
     <g id="line2d_12">
      <g>
       <use style="stroke:#000000;stroke-width:0.8;" x="90" xlink:href="#m9bd761779c" y="176.437549"/>
      </g>
     </g>
     <g id="text_13">
      <!-- 2 -->
      <g transform="translate(74.0925 181.756455)scale(0.14 -0.14)">
       <use xlink:href="#DejaVuSans-50"/>
      </g>
     </g>
    </g>
    <g id="text_14">
     <!-- PC 2 -->
     <g transform="translate(55.241406 380.514844)rotate(-90)scale(0.15 -0.15)">
      <use xlink:href="#DejaVuSans-80"/>
      <use x="60.302734" xlink:href="#DejaVuSans-67"/>
      <use x="130.126953" xlink:href="#DejaVuSans-32"/>
      <use x="161.914062" xlink:href="#DejaVuSans-50"/>
     </g>
    </g>
   </g>
   <g id="patch_3">
    <path d="M 90 640.8 
L 90 86.4 
" style="fill:none;stroke:#000000;stroke-linecap:square;stroke-linejoin:miter;stroke-width:0.8;"/>
   </g>
   <g id="patch_4">
    <path d="M 648 640.8 
L 648 86.4 
" style="fill:none;stroke:#000000;stroke-linecap:square;stroke-linejoin:miter;stroke-width:0.8;"/>
   </g>
   <g id="patch_5">
    <path d="M 90 640.8 
L 648 640.8 
" style="fill:none;stroke:#000000;stroke-linecap:square;stroke-linejoin:miter;stroke-width:0.8;"/>
   </g>
   <g id="patch_6">
    <path d="M 90 86.4 
L 648 86.4 
" style="fill:none;stroke:#000000;stroke-linecap:square;stroke-linejoin:miter;stroke-width:0.8;"/>
   </g>
   <g id="text_15">
    <!-- PCA of Iris Dataset -->
    <defs>
     <path d="M 34.1875 63.1875 
L 20.796875 26.90625 
L 47.609375 26.90625 
z
M 28.609375 72.90625 
L 39.796875 72.90625 
L 67.578125 0 
L 57.328125 0 
L 50.6875 18.703125 
L 17.828125 18.703125 
L 11.1875 0 
L 0.78125 0 
z
" id="DejaVuSans-65"/>
     <path d="M 30.609375 48.390625 
Q 23.390625 48.390625 19.1875 42.75 
Q 14.984375 37.109375 14.984375 27.296875 
Q 14.984375 17.484375 19.15625 11.84375 
Q 23.34375 6.203125 30.609375 6.203125 
Q 37.796875 6.203125 41.984375 11.859375 
Q 46.1875 17.53125 46.1875 27.296875 
Q 46.1875 37.015625 41.984375 42.703125 
Q 37.796875 48.390625 30.609375 48.390625 
z
M 30.609375 56 
Q 42.328125 56 49.015625 48.375 
Q 55.71875 40.765625 55.71875 27.296875 
Q 55.71875 13.875 49.015625 6.21875 
Q 42.328125 -1.421875 30.609375 -1.421875 
Q 18.84375 -1.421875 12.171875 6.21875 
Q 5.515625 13.875 5.515625 27.296875 
Q 5.515625 40.765625 12.171875 48.375 
Q 18.84375 56 30.609375 56 
z
" id="DejaVuSans-111"/>
     <path d="M 37.109375 75.984375 
L 37.109375 68.5 
L 28.515625 68.5 
Q 23.6875 68.5 21.796875 66.546875 
Q 19.921875 64.59375 19.921875 59.515625 
L 19.921875 54.6875 
L 34.71875 54.6875 
L 34.71875 47.703125 
L 19.921875 47.703125 
L 19.921875 0 
L 10.890625 0 
L 10.890625 47.703125 
L 2.296875 47.703125 
L 2.296875 54.6875 
L 10.890625 54.6875 
L 10.890625 58.5 
Q 10.890625 67.625 15.140625 71.796875 
Q 19.390625 75.984375 28.609375 75.984375 
z
" id="DejaVuSans-102"/>
     <path d="M 9.8125 72.90625 
L 19.671875 72.90625 
L 19.671875 0 
L 9.8125 0 
z
" id="DejaVuSans-73"/>
     <path d="M 41.109375 46.296875 
Q 39.59375 47.171875 37.8125 47.578125 
Q 36.03125 48 33.890625 48 
Q 26.265625 48 22.1875 43.046875 
Q 18.109375 38.09375 18.109375 28.8125 
L 18.109375 0 
L 9.078125 0 
L 9.078125 54.6875 
L 18.109375 54.6875 
L 18.109375 46.1875 
Q 20.953125 51.171875 25.484375 53.578125 
Q 30.03125 56 36.53125 56 
Q 37.453125 56 38.578125 55.875 
Q 39.703125 55.765625 41.0625 55.515625 
z
" id="DejaVuSans-114"/>
     <path d="M 9.421875 54.6875 
L 18.40625 54.6875 
L 18.40625 0 
L 9.421875 0 
z
M 9.421875 75.984375 
L 18.40625 75.984375 
L 18.40625 64.59375 
L 9.421875 64.59375 
z
" id="DejaVuSans-105"/>
     <path d="M 44.28125 53.078125 
L 44.28125 44.578125 
Q 40.484375 46.53125 36.375 47.5 
Q 32.28125 48.484375 27.875 48.484375 
Q 21.1875 48.484375 17.84375 46.4375 
Q 14.5 44.390625 14.5 40.28125 
Q 14.5 37.15625 16.890625 35.375 
Q 19.28125 33.59375 26.515625 31.984375 
L 29.59375 31.296875 
Q 39.15625 29.25 43.1875 25.515625 
Q 47.21875 21.78125 47.21875 15.09375 
Q 47.21875 7.46875 41.1875 3.015625 
Q 35.15625 -1.421875 24.609375 -1.421875 
Q 20.21875 -1.421875 15.453125 -0.5625 
Q 10.6875 0.296875 5.421875 2 
L 5.421875 11.28125 
Q 10.40625 8.6875 15.234375 7.390625 
Q 20.0625 6.109375 24.8125 6.109375 
Q 31.15625 6.109375 34.5625 8.28125 
Q 37.984375 10.453125 37.984375 14.40625 
Q 37.984375 18.0625 35.515625 20.015625 
Q 33.0625 21.96875 24.703125 23.78125 
L 21.578125 24.515625 
Q 13.234375 26.265625 9.515625 29.90625 
Q 5.8125 33.546875 5.8125 39.890625 
Q 5.8125 47.609375 11.28125 51.796875 
Q 16.75 56 26.8125 56 
Q 31.78125 56 36.171875 55.265625 
Q 40.578125 54.546875 44.28125 53.078125 
z
" id="DejaVuSans-115"/>
     <path d="M 19.671875 64.796875 
L 19.671875 8.109375 
L 31.59375 8.109375 
Q 46.6875 8.109375 53.6875 14.9375 
Q 60.6875 21.78125 60.6875 36.53125 
Q 60.6875 51.171875 53.6875 57.984375 
Q 46.6875 64.796875 31.59375 64.796875 
z
M 9.8125 72.90625 
L 30.078125 72.90625 
Q 51.265625 72.90625 61.171875 64.09375 
Q 71.09375 55.28125 71.09375 36.53125 
Q 71.09375 17.671875 61.125 8.828125 
Q 51.171875 0 30.078125 0 
L 9.8125 0 
z
" id="DejaVuSans-68"/>
     <path d="M 34.28125 27.484375 
Q 23.390625 27.484375 19.1875 25 
Q 14.984375 22.515625 14.984375 16.5 
Q 14.984375 11.71875 18.140625 8.90625 
Q 21.296875 6.109375 26.703125 6.109375 
Q 34.1875 6.109375 38.703125 11.40625 
Q 43.21875 16.703125 43.21875 25.484375 
L 43.21875 27.484375 
z
M 52.203125 31.203125 
L 52.203125 0 
L 43.21875 0 
L 43.21875 8.296875 
Q 40.140625 3.328125 35.546875 0.953125 
Q 30.953125 -1.421875 24.3125 -1.421875 
Q 15.921875 -1.421875 10.953125 3.296875 
Q 6 8.015625 6 15.921875 
Q 6 25.140625 12.171875 29.828125 
Q 18.359375 34.515625 30.609375 34.515625 
L 43.21875 34.515625 
L 43.21875 35.40625 
Q 43.21875 41.609375 39.140625 45 
Q 35.0625 48.390625 27.6875 48.390625 
Q 23 48.390625 18.546875 47.265625 
Q 14.109375 46.140625 10.015625 43.890625 
L 10.015625 52.203125 
Q 14.9375 54.109375 19.578125 55.046875 
Q 24.21875 56 28.609375 56 
Q 40.484375 56 46.34375 49.84375 
Q 52.203125 43.703125 52.203125 31.203125 
z
" id="DejaVuSans-97"/>
     <path d="M 18.3125 70.21875 
L 18.3125 54.6875 
L 36.8125 54.6875 
L 36.8125 47.703125 
L 18.3125 47.703125 
L 18.3125 18.015625 
Q 18.3125 11.328125 20.140625 9.421875 
Q 21.96875 7.515625 27.59375 7.515625 
L 36.8125 7.515625 
L 36.8125 0 
L 27.59375 0 
Q 17.1875 0 13.234375 3.875 
Q 9.28125 7.765625 9.28125 18.015625 
L 9.28125 47.703125 
L 2.6875 47.703125 
L 2.6875 54.6875 
L 9.28125 54.6875 
L 9.28125 70.21875 
z
" id="DejaVuSans-116"/>
     <path d="M 56.203125 29.59375 
L 56.203125 25.203125 
L 14.890625 25.203125 
Q 15.484375 15.921875 20.484375 11.0625 
Q 25.484375 6.203125 34.421875 6.203125 
Q 39.59375 6.203125 44.453125 7.46875 
Q 49.3125 8.734375 54.109375 11.28125 
L 54.109375 2.78125 
Q 49.265625 0.734375 44.1875 -0.34375 
Q 39.109375 -1.421875 33.890625 -1.421875 
Q 20.796875 -1.421875 13.15625 6.1875 
Q 5.515625 13.8125 5.515625 26.8125 
Q 5.515625 40.234375 12.765625 48.109375 
Q 20.015625 56 32.328125 56 
Q 43.359375 56 49.78125 48.890625 
Q 56.203125 41.796875 56.203125 29.59375 
z
M 47.21875 32.234375 
Q 47.125 39.59375 43.09375 43.984375 
Q 39.0625 48.390625 32.421875 48.390625 
Q 24.90625 48.390625 20.390625 44.140625 
Q 15.875 39.890625 15.1875 32.171875 
z
" id="DejaVuSans-101"/>
    </defs>
    <g transform="translate(275.765625 80.4)scale(0.2 -0.2)">
     <use xlink:href="#DejaVuSans-80"/>
     <use x="60.302734" xlink:href="#DejaVuSans-67"/>
     <use x="130.126953" xlink:href="#DejaVuSans-65"/>
     <use x="198.535156" xlink:href="#DejaVuSans-32"/>
     <use x="230.322266" xlink:href="#DejaVuSans-111"/>
     <use x="291.503906" xlink:href="#DejaVuSans-102"/>
     <use x="326.708984" xlink:href="#DejaVuSans-32"/>
     <use x="358.496094" xlink:href="#DejaVuSans-73"/>
     <use x="387.988281" xlink:href="#DejaVuSans-114"/>
     <use x="429.101562" xlink:href="#DejaVuSans-105"/>
     <use x="456.884766" xlink:href="#DejaVuSans-115"/>
     <use x="508.984375" xlink:href="#DejaVuSans-32"/>
     <use x="540.771484" xlink:href="#DejaVuSans-68"/>
     <use x="617.773438" xlink:href="#DejaVuSans-97"/>
     <use x="679.052734" xlink:href="#DejaVuSans-116"/>
     <use x="718.261719" xlink:href="#DejaVuSans-97"/>
     <use x="779.541016" xlink:href="#DejaVuSans-115"/>
     <use x="831.640625" xlink:href="#DejaVuSans-101"/>
     <use x="893.164062" xlink:href="#DejaVuSans-116"/>
    </g>
   </g>
   <g id="legend_1">
    <g id="patch_7">
     <path d="M 506.800781 633.3 
L 637.5 633.3 
Q 640.5 633.3 640.5 630.3 
L 640.5 565.748438 
Q 640.5 562.748438 637.5 562.748438 
L 506.800781 562.748438 
Q 503.800781 562.748438 503.800781 565.748438 
L 503.800781 630.3 
Q 503.800781 633.3 506.800781 633.3 
z
" style="fill:#ffffff;opacity:0.8;stroke:#cccccc;stroke-linejoin:miter;"/>
    </g>
    <g id="PathCollection_4">
     <g>
      <use style="fill:#ff0000;stroke:#ff0000;" x="524.800781" xlink:href="#mc04e8200f9" y="576.208594"/>
     </g>
    </g>
    <g id="text_16">
     <!-- setosa -->
     <g transform="translate(551.800781 580.146094)scale(0.15 -0.15)">
      <use xlink:href="#DejaVuSans-115"/>
      <use x="52.099609" xlink:href="#DejaVuSans-101"/>
      <use x="113.623047" xlink:href="#DejaVuSans-116"/>
      <use x="152.832031" xlink:href="#DejaVuSans-111"/>
      <use x="214.013672" xlink:href="#DejaVuSans-115"/>
      <use x="266.113281" xlink:href="#DejaVuSans-97"/>
     </g>
    </g>
    <g id="PathCollection_5">
     <g>
      <use style="fill:#008000;stroke:#008000;" x="524.800781" xlink:href="#mcf6d17c163" y="598.225781"/>
     </g>
    </g>
    <g id="text_17">
     <!-- versicolour -->
     <defs>
      <path d="M 2.984375 54.6875 
L 12.5 54.6875 
L 29.59375 8.796875 
L 46.6875 54.6875 
L 56.203125 54.6875 
L 35.6875 0 
L 23.484375 0 
z
" id="DejaVuSans-118"/>
      <path d="M 48.78125 52.59375 
L 48.78125 44.1875 
Q 44.96875 46.296875 41.140625 47.34375 
Q 37.3125 48.390625 33.40625 48.390625 
Q 24.65625 48.390625 19.8125 42.84375 
Q 14.984375 37.3125 14.984375 27.296875 
Q 14.984375 17.28125 19.8125 11.734375 
Q 24.65625 6.203125 33.40625 6.203125 
Q 37.3125 6.203125 41.140625 7.25 
Q 44.96875 8.296875 48.78125 10.40625 
L 48.78125 2.09375 
Q 45.015625 0.34375 40.984375 -0.53125 
Q 36.96875 -1.421875 32.421875 -1.421875 
Q 20.0625 -1.421875 12.78125 6.34375 
Q 5.515625 14.109375 5.515625 27.296875 
Q 5.515625 40.671875 12.859375 48.328125 
Q 20.21875 56 33.015625 56 
Q 37.15625 56 41.109375 55.140625 
Q 45.0625 54.296875 48.78125 52.59375 
z
" id="DejaVuSans-99"/>
      <path d="M 9.421875 75.984375 
L 18.40625 75.984375 
L 18.40625 0 
L 9.421875 0 
z
" id="DejaVuSans-108"/>
      <path d="M 8.5 21.578125 
L 8.5 54.6875 
L 17.484375 54.6875 
L 17.484375 21.921875 
Q 17.484375 14.15625 20.5 10.265625 
Q 23.53125 6.390625 29.59375 6.390625 
Q 36.859375 6.390625 41.078125 11.03125 
Q 45.3125 15.671875 45.3125 23.6875 
L 45.3125 54.6875 
L 54.296875 54.6875 
L 54.296875 0 
L 45.3125 0 
L 45.3125 8.40625 
Q 42.046875 3.421875 37.71875 1 
Q 33.40625 -1.421875 27.6875 -1.421875 
Q 18.265625 -1.421875 13.375 4.4375 
Q 8.5 10.296875 8.5 21.578125 
z
M 31.109375 56 
z
" id="DejaVuSans-117"/>
     </defs>
     <g transform="translate(551.800781 602.163281)scale(0.15 -0.15)">
      <use xlink:href="#DejaVuSans-118"/>
      <use x="59.179688" xlink:href="#DejaVuSans-101"/>
      <use x="120.703125" xlink:href="#DejaVuSans-114"/>
      <use x="161.816406" xlink:href="#DejaVuSans-115"/>
      <use x="213.916016" xlink:href="#DejaVuSans-105"/>
      <use x="241.699219" xlink:href="#DejaVuSans-99"/>
      <use x="296.679688" xlink:href="#DejaVuSans-111"/>
      <use x="357.861328" xlink:href="#DejaVuSans-108"/>
      <use x="385.644531" xlink:href="#DejaVuSans-111"/>
      <use x="446.826172" xlink:href="#DejaVuSans-117"/>
      <use x="510.205078" xlink:href="#DejaVuSans-114"/>
     </g>
    </g>
    <g id="PathCollection_6">
     <g>
      <use style="fill:#0000ff;stroke:#0000ff;" x="524.800781" xlink:href="#mc620b20dcf" y="620.242969"/>
     </g>
    </g>
    <g id="text_18">
     <!-- virginica -->
     <defs>
      <path d="M 45.40625 27.984375 
Q 45.40625 37.75 41.375 43.109375 
Q 37.359375 48.484375 30.078125 48.484375 
Q 22.859375 48.484375 18.828125 43.109375 
Q 14.796875 37.75 14.796875 27.984375 
Q 14.796875 18.265625 18.828125 12.890625 
Q 22.859375 7.515625 30.078125 7.515625 
Q 37.359375 7.515625 41.375 12.890625 
Q 45.40625 18.265625 45.40625 27.984375 
z
M 54.390625 6.78125 
Q 54.390625 -7.171875 48.1875 -13.984375 
Q 42 -20.796875 29.203125 -20.796875 
Q 24.46875 -20.796875 20.265625 -20.09375 
Q 16.0625 -19.390625 12.109375 -17.921875 
L 12.109375 -9.1875 
Q 16.0625 -11.328125 19.921875 -12.34375 
Q 23.78125 -13.375 27.78125 -13.375 
Q 36.625 -13.375 41.015625 -8.765625 
Q 45.40625 -4.15625 45.40625 5.171875 
L 45.40625 9.625 
Q 42.625 4.78125 38.28125 2.390625 
Q 33.9375 0 27.875 0 
Q 17.828125 0 11.671875 7.65625 
Q 5.515625 15.328125 5.515625 27.984375 
Q 5.515625 40.671875 11.671875 48.328125 
Q 17.828125 56 27.875 56 
Q 33.9375 56 38.28125 53.609375 
Q 42.625 51.21875 45.40625 46.390625 
L 45.40625 54.6875 
L 54.390625 54.6875 
z
" id="DejaVuSans-103"/>
      <path d="M 54.890625 33.015625 
L 54.890625 0 
L 45.90625 0 
L 45.90625 32.71875 
Q 45.90625 40.484375 42.875 44.328125 
Q 39.84375 48.1875 33.796875 48.1875 
Q 26.515625 48.1875 22.3125 43.546875 
Q 18.109375 38.921875 18.109375 30.90625 
L 18.109375 0 
L 9.078125 0 
L 9.078125 54.6875 
L 18.109375 54.6875 
L 18.109375 46.1875 
Q 21.34375 51.125 25.703125 53.5625 
Q 30.078125 56 35.796875 56 
Q 45.21875 56 50.046875 50.171875 
Q 54.890625 44.34375 54.890625 33.015625 
z
" id="DejaVuSans-110"/>
     </defs>
     <g transform="translate(551.800781 624.180469)scale(0.15 -0.15)">
      <use xlink:href="#DejaVuSans-118"/>
      <use x="59.179688" xlink:href="#DejaVuSans-105"/>
      <use x="86.962891" xlink:href="#DejaVuSans-114"/>
      <use x="128.060547" xlink:href="#DejaVuSans-103"/>
      <use x="191.537109" xlink:href="#DejaVuSans-105"/>
      <use x="219.320312" xlink:href="#DejaVuSans-110"/>
      <use x="282.699219" xlink:href="#DejaVuSans-105"/>
      <use x="310.482422" xlink:href="#DejaVuSans-99"/>
      <use x="365.462891" xlink:href="#DejaVuSans-97"/>
     </g>
    </g>
   </g>
  </g>
 </g>
 <defs>
  <clipPath id="p2eeffc7492">
   <rect height="554.4" width="558" x="90" y="86.4"/>
  </clipPath>
 </defs>
</svg>
