<?xml version="1.0" encoding="utf-8" standalone="no"?>
<!DOCTYPE svg PUBLIC "-//W3C//DTD SVG 1.1//EN"
  "http://www.w3.org/Graphics/SVG/1.1/DTD/svg11.dtd">
<!-- Created with matplotlib (https://matplotlib.org/) -->
<svg height="720pt" version="1.1" viewBox="0 0 720 720" width="720pt" xmlns="http://www.w3.org/2000/svg" xmlns:xlink="http://www.w3.org/1999/xlink">
 <defs>
  <style type="text/css">
*{stroke-linecap:butt;stroke-linejoin:round;}
  </style>
 </defs>
 <g id="figure_1">
  <g id="patch_1">
   <path d="M 0 720 
L 720 720 
L 720 0 
L 0 0 
z
" style="fill:#ffffff;"/>
  </g>
  <g id="axes_1">
   <g id="patch_2">
    <path d="M 90 640.8 
L 648 640.8 
L 648 86.4 
L 90 86.4 
z
" style="fill:#ffffff;"/>
   </g>
   <g id="PathCollection_1">
    <defs>
     <path d="M 0 3.535534 
C 0.937635 3.535534 1.836992 3.163008 2.5 2.5 
C 3.163008 1.836992 3.535534 0.937635 3.535534 0 
C 3.535534 -0.937635 3.163008 -1.836992 2.5 -2.5 
C 1.836992 -3.163008 0.937635 -3.535534 0 -3.535534 
C -0.937635 -3.535534 -1.836992 -3.163008 -2.5 -2.5 
C -3.163008 -1.836992 -3.535534 -0.937635 -3.535534 0 
C -3.535534 0.937635 -3.163008 1.836992 -2.5 2.5 
C -1.836992 3.163008 -0.937635 3.535534 0 3.535534 
z
" id="m58bdefdd7d" style="stroke:#ff0000;"/>
    </defs>
    <g clip-path="url(#pc62982312f)">
     <use style="fill:#ff0000;stroke:#ff0000;" x="148.063123" xlink:href="#m58bdefdd7d" y="575.77348"/>
     <use style="fill:#ff0000;stroke:#ff0000;" x="160.870497" xlink:href="#m58bdefdd7d" y="528.485163"/>
     <use style="fill:#ff0000;stroke:#ff0000;" x="171.32753" xlink:href="#m58bdefdd7d" y="544.015295"/>
     <use style="fill:#ff0000;stroke:#ff0000;" x="179.294336" xlink:href="#m58bdefdd7d" y="535.71173"/>
     <use style="fill:#ff0000;stroke:#ff0000;" x="133.22631" xlink:href="#m58bdefdd7d" y="579.678596"/>
     <use style="fill:#ff0000;stroke:#ff0000;" x="129.430041" xlink:href="#m58bdefdd7d" y="602.433012"/>
     <use style="fill:#ff0000;stroke:#ff0000;" x="138.343693" xlink:href="#m58bdefdd7d" y="553.26093"/>
     <use style="fill:#ff0000;stroke:#ff0000;" x="153.469568" xlink:href="#m58bdefdd7d" y="564.252203"/>
     <use style="fill:#ff0000;stroke:#ff0000;" x="183.875299" xlink:href="#m58bdefdd7d" y="523.12745"/>
     <use style="fill:#ff0000;stroke:#ff0000;" x="155.989163" xlink:href="#m58bdefdd7d" y="536.649441"/>
     <use style="fill:#ff0000;stroke:#ff0000;" x="145.617113" xlink:href="#m58bdefdd7d" y="594.236663"/>
     <use style="fill:#ff0000;stroke:#ff0000;" x="145.181551" xlink:href="#m58bdefdd7d" y="558.226369"/>
     <use style="fill:#ff0000;stroke:#ff0000;" x="169.058724" xlink:href="#m58bdefdd7d" y="528.368843"/>
     <use style="fill:#ff0000;stroke:#ff0000;" x="192.92717" xlink:href="#m58bdefdd7d" y="529.209132"/>
     <use style="fill:#ff0000;stroke:#ff0000;" x="137.179255" xlink:href="#m58bdefdd7d" y="610.475716"/>
     <use style="fill:#ff0000;stroke:#ff0000;" x="122.656105" xlink:href="#m58bdefdd7d" y="615.541862"/>
     <use style="fill:#ff0000;stroke:#ff0000;" x="130.879555" xlink:href="#m58bdefdd7d" y="602.781405"/>
     <use style="fill:#ff0000;stroke:#ff0000;" x="147.437889" xlink:href="#m58bdefdd7d" y="575.367922"/>
     <use style="fill:#ff0000;stroke:#ff0000;" x="145.5869" xlink:href="#m58bdefdd7d" y="603.436484"/>
     <use style="fill:#ff0000;stroke:#ff0000;" x="123.973056" xlink:href="#m58bdefdd7d" y="593.16953"/>
     <use style="fill:#ff0000;stroke:#ff0000;" x="170.855543" xlink:href="#m58bdefdd7d" y="577.867173"/>
     <use style="fill:#ff0000;stroke:#ff0000;" x="129.350935" xlink:href="#m58bdefdd7d" y="587.303378"/>
     <use style="fill:#ff0000;stroke:#ff0000;" x="115.8571" xlink:href="#m58bdefdd7d" y="568.896321"/>
     <use style="fill:#ff0000;stroke:#ff0000;" x="172.968965" xlink:href="#m58bdefdd7d" y="562.189084"/>
     <use style="fill:#ff0000;stroke:#ff0000;" x="143.868184" xlink:href="#m58bdefdd7d" y="557.834915"/>
     <use style="fill:#ff0000;stroke:#ff0000;" x="154.101303" xlink:href="#m58bdefdd7d" y="529.169344"/>
     <use style="fill:#ff0000;stroke:#ff0000;" x="153.538744" xlink:href="#m58bdefdd7d" y="564.788896"/>
     <use style="fill:#ff0000;stroke:#ff0000;" x="153.285261" xlink:href="#m58bdefdd7d" y="579.197086"/>
     <use style="fill:#ff0000;stroke:#ff0000;" x="163.98892" xlink:href="#m58bdefdd7d" y="571.339856"/>
     <use style="fill:#ff0000;stroke:#ff0000;" x="168.49868" xlink:href="#m58bdefdd7d" y="544.033553"/>
     <use style="fill:#ff0000;stroke:#ff0000;" x="166.582634" xlink:href="#m58bdefdd7d" y="536.773755"/>
     <use style="fill:#ff0000;stroke:#ff0000;" x="171.553093" xlink:href="#m58bdefdd7d" y="577.444734"/>
     <use style="fill:#ff0000;stroke:#ff0000;" x="115.470141" xlink:href="#m58bdefdd7d" y="606.409637"/>
     <use style="fill:#ff0000;stroke:#ff0000;" x="122.672381" xlink:href="#m58bdefdd7d" y="611.819951"/>
     <use style="fill:#ff0000;stroke:#ff0000;" x="157.182745" xlink:href="#m58bdefdd7d" y="537.327451"/>
     <use style="fill:#ff0000;stroke:#ff0000;" x="158.660157" xlink:href="#m58bdefdd7d" y="546.810436"/>
     <use style="fill:#ff0000;stroke:#ff0000;" x="163.366424" xlink:href="#m58bdefdd7d" y="586.31343"/>
     <use style="fill:#ff0000;stroke:#ff0000;" x="125.757541" xlink:href="#m58bdefdd7d" y="576.849041"/>
     <use style="fill:#ff0000;stroke:#ff0000;" x="187.344746" xlink:href="#m58bdefdd7d" y="529.172121"/>
     <use style="fill:#ff0000;stroke:#ff0000;" x="159.670702" xlink:href="#m58bdefdd7d" y="567.866379"/>
     <use style="fill:#ff0000;stroke:#ff0000;" x="140.771714" xlink:href="#m58bdefdd7d" y="571.539556"/>
     <use style="fill:#ff0000;stroke:#ff0000;" x="190.957443" xlink:href="#m58bdefdd7d" y="509.506249"/>
     <use style="fill:#ff0000;stroke:#ff0000;" x="189.242446" xlink:href="#m58bdefdd7d" y="539.995585"/>
     <use style="fill:#ff0000;stroke:#ff0000;" x="133.419567" xlink:href="#m58bdefdd7d" y="569.707459"/>
     <use style="fill:#ff0000;stroke:#ff0000;" x="118.405839" xlink:href="#m58bdefdd7d" y="593.623339"/>
     <use style="fill:#ff0000;stroke:#ff0000;" x="169.033142" xlink:href="#m58bdefdd7d" y="528.410599"/>
     <use style="fill:#ff0000;stroke:#ff0000;" x="123.763568" xlink:href="#m58bdefdd7d" y="593.140332"/>
     <use style="fill:#ff0000;stroke:#ff0000;" x="178.584274" xlink:href="#m58bdefdd7d" y="542.903846"/>
     <use style="fill:#ff0000;stroke:#ff0000;" x="141.482912" xlink:href="#m58bdefdd7d" y="591.882097"/>
     <use style="fill:#ff0000;stroke:#ff0000;" x="162.994784" xlink:href="#m58bdefdd7d" y="556.42789"/>
    </g>
   </g>
   <g id="PathCollection_2">
    <defs>
     <path d="M 0 3.535534 
C 0.937635 3.535534 1.836992 3.163008 2.5 2.5 
C 3.163008 1.836992 3.535534 0.937635 3.535534 0 
C 3.535534 -0.937635 3.163008 -1.836992 2.5 -2.5 
C 1.836992 -3.163008 0.937635 -3.535534 0 -3.535534 
C -0.937635 -3.535534 -1.836992 -3.163008 -2.5 -2.5 
C -3.163008 -1.836992 -3.535534 -0.937635 -3.535534 0 
C -3.535534 0.937635 -3.163008 1.836992 -2.5 2.5 
C -1.836992 3.163008 -0.937635 3.535534 0 3.535534 
z
" id="mdd3996aa26" style="stroke:#008000;"/>
    </defs>
    <g clip-path="url(#pc62982312f)">
     <use style="fill:#008000;stroke:#008000;" x="611.313178" xlink:href="#mdd3996aa26" y="193.695072"/>
     <use style="fill:#008000;stroke:#008000;" x="608.027892" xlink:href="#mdd3996aa26" y="208.153796"/>
     <use style="fill:#008000;stroke:#008000;" x="602.501431" xlink:href="#mdd3996aa26" y="192.39257"/>
     <use style="fill:#008000;stroke:#008000;" x="520.630669" xlink:href="#mdd3996aa26" y="291.114808"/>
     <use style="fill:#008000;stroke:#008000;" x="563.895594" xlink:href="#mdd3996aa26" y="207.378134"/>
     <use style="fill:#008000;stroke:#008000;" x="530.938959" xlink:href="#mdd3996aa26" y="254.37306"/>
     <use style="fill:#008000;stroke:#008000;" x="615.219156" xlink:href="#mdd3996aa26" y="210.512153"/>
     <use style="fill:#008000;stroke:#008000;" x="493.347995" xlink:href="#mdd3996aa26" y="293.131495"/>
     <use style="fill:#008000;stroke:#008000;" x="580.387969" xlink:href="#mdd3996aa26" y="210.669855"/>
     <use style="fill:#008000;stroke:#008000;" x="496.321833" xlink:href="#mdd3996aa26" y="270.011336"/>
     <use style="fill:#008000;stroke:#008000;" x="502.566753" xlink:href="#mdd3996aa26" y="300.951575"/>
     <use style="fill:#008000;stroke:#008000;" x="535.150819" xlink:href="#mdd3996aa26" y="235.644283"/>
     <use style="fill:#008000;stroke:#008000;" x="540.725578" xlink:href="#mdd3996aa26" y="293.346641"/>
     <use style="fill:#008000;stroke:#008000;" x="551.261684" xlink:href="#mdd3996aa26" y="229.80367"/>
     <use style="fill:#008000;stroke:#008000;" x="513.696206" xlink:href="#mdd3996aa26" y="253.843375"/>
     <use style="fill:#008000;stroke:#008000;" x="600.522264" xlink:href="#mdd3996aa26" y="201.57929"/>
     <use style="fill:#008000;stroke:#008000;" x="517.688993" xlink:href="#mdd3996aa26" y="239.262384"/>
     <use style="fill:#008000;stroke:#008000;" x="534.355906" xlink:href="#mdd3996aa26" y="267.187958"/>
     <use style="fill:#008000;stroke:#008000;" x="559.145154" xlink:href="#mdd3996aa26" y="292.229007"/>
     <use style="fill:#008000;stroke:#008000;" x="519.360429" xlink:href="#mdd3996aa26" y="280.965665"/>
     <use style="fill:#008000;stroke:#008000;" x="552.309005" xlink:href="#mdd3996aa26" y="216.487742"/>
     <use style="fill:#008000;stroke:#008000;" x="553.634199" xlink:href="#mdd3996aa26" y="245.918452"/>
     <use style="fill:#008000;stroke:#008000;" x="497.190962" xlink:href="#mdd3996aa26" y="197.649588"/>
     <use style="fill:#008000;stroke:#008000;" x="557.415852" xlink:href="#mdd3996aa26" y="239.99507"/>
     <use style="fill:#008000;stroke:#008000;" x="575.229797" xlink:href="#mdd3996aa26" y="222.302514"/>
     <use style="fill:#008000;stroke:#008000;" x="589.319433" xlink:href="#mdd3996aa26" y="206.98109"/>
     <use style="fill:#008000;stroke:#008000;" x="575.045491" xlink:href="#mdd3996aa26" y="202.99513"/>
     <use style="fill:#008000;stroke:#008000;" x="584.374534" xlink:href="#mdd3996aa26" y="187.580087"/>
     <use style="fill:#008000;stroke:#008000;" x="541.504649" xlink:href="#mdd3996aa26" y="231.3655"/>
     <use style="fill:#008000;stroke:#008000;" x="526.107926" xlink:href="#mdd3996aa26" y="277.011318"/>
     <use style="fill:#008000;stroke:#008000;" x="515.11726" xlink:href="#mdd3996aa26" y="287.044947"/>
     <use style="fill:#008000;stroke:#008000;" x="514.334353" xlink:href="#mdd3996aa26" y="288.049295"/>
     <use style="fill:#008000;stroke:#008000;" x="529.935972" xlink:href="#mdd3996aa26" y="265.249177"/>
     <use style="fill:#008000;stroke:#008000;" x="506.79289" xlink:href="#mdd3996aa26" y="208.655871"/>
     <use style="fill:#008000;stroke:#008000;" x="507.53994" xlink:href="#mdd3996aa26" y="242.693078"/>
     <use style="fill:#008000;stroke:#008000;" x="617.203577" xlink:href="#mdd3996aa26" y="217.38453"/>
     <use style="fill:#008000;stroke:#008000;" x="599.053413" xlink:href="#mdd3996aa26" y="197.508792"/>
     <use style="fill:#008000;stroke:#008000;" x="557.664102" xlink:href="#mdd3996aa26" y="290.981582"/>
     <use style="fill:#008000;stroke:#008000;" x="518.440829" xlink:href="#mdd3996aa26" y="246.158223"/>
     <use style="fill:#008000;stroke:#008000;" x="510.653938" xlink:href="#mdd3996aa26" y="279.488489"/>
     <use style="fill:#008000;stroke:#008000;" x="512.267548" xlink:href="#mdd3996aa26" y="272.714808"/>
     <use style="fill:#008000;stroke:#008000;" x="554.611025" xlink:href="#mdd3996aa26" y="228.853643"/>
     <use style="fill:#008000;stroke:#008000;" x="527.99721" xlink:href="#mdd3996aa26" y="272.150716"/>
     <use style="fill:#008000;stroke:#008000;" x="497.614217" xlink:href="#mdd3996aa26" y="295.069831"/>
     <use style="fill:#008000;stroke:#008000;" x="516.707219" xlink:href="#mdd3996aa26" y="264.615912"/>
     <use style="fill:#008000;stroke:#008000;" x="527.173849" xlink:href="#mdd3996aa26" y="245.790914"/>
     <use style="fill:#008000;stroke:#008000;" x="528.454737" xlink:href="#mdd3996aa26" y="249.137891"/>
     <use style="fill:#008000;stroke:#008000;" x="562.983347" xlink:href="#mdd3996aa26" y="232.976813"/>
     <use style="fill:#008000;stroke:#008000;" x="494.341358" xlink:href="#mdd3996aa26" y="289.060121"/>
     <use style="fill:#008000;stroke:#008000;" x="526.528109" xlink:href="#mdd3996aa26" y="256.893315"/>
    </g>
   </g>
   <g id="PathCollection_3">
    <defs>
     <path d="M 0 3.535534 
C 0.937635 3.535534 1.836992 3.163008 2.5 2.5 
C 3.163008 1.836992 3.535534 0.937635 3.535534 0 
C 3.535534 -0.937635 3.163008 -1.836992 2.5 -2.5 
C 1.836992 -3.163008 0.937635 -3.535534 0 -3.535534 
C -0.937635 -3.535534 -1.836992 -3.163008 -2.5 -2.5 
C -3.163008 -1.836992 -3.535534 -0.937635 -3.535534 0 
C -3.535534 0.937635 -3.163008 1.836992 -2.5 2.5 
C -1.836992 3.163008 -0.937635 3.535534 0 3.535534 
z
" id="me9fc5483dd" style="stroke:#0000ff;"/>
    </defs>
    <g clip-path="url(#pc62982312f)">
     <use style="fill:#0000ff;stroke:#0000ff;" x="617.310291" xlink:href="#me9fc5483dd" y="157.386014"/>
     <use style="fill:#0000ff;stroke:#0000ff;" x="488.380848" xlink:href="#me9fc5483dd" y="213.451037"/>
     <use style="fill:#0000ff;stroke:#0000ff;" x="581.092521" xlink:href="#me9fc5483dd" y="138.016093"/>
     <use style="fill:#0000ff;stroke:#0000ff;" x="546.10737" xlink:href="#me9fc5483dd" y="185.883318"/>
     <use style="fill:#0000ff;stroke:#0000ff;" x="565.920414" xlink:href="#me9fc5483dd" y="163.552126"/>
     <use style="fill:#0000ff;stroke:#0000ff;" x="580.484164" xlink:href="#me9fc5483dd" y="122.600797"/>
     <use style="fill:#0000ff;stroke:#0000ff;" x="480.530525" xlink:href="#me9fc5483dd" y="275.870587"/>
     <use style="fill:#0000ff;stroke:#0000ff;" x="591.613098" xlink:href="#me9fc5483dd" y="125.74706"/>
     <use style="fill:#0000ff;stroke:#0000ff;" x="502.063008" xlink:href="#me9fc5483dd" y="182.958502"/>
     <use style="fill:#0000ff;stroke:#0000ff;" x="549.160063" xlink:href="#me9fc5483dd" y="136.937018"/>
     <use style="fill:#0000ff;stroke:#0000ff;" x="590.311421" xlink:href="#me9fc5483dd" y="169.371691"/>
     <use style="fill:#0000ff;stroke:#0000ff;" x="519.247643" xlink:href="#me9fc5483dd" y="188.278299"/>
     <use style="fill:#0000ff;stroke:#0000ff;" x="569.566676" xlink:href="#me9fc5483dd" y="156.531453"/>
     <use style="fill:#0000ff;stroke:#0000ff;" x="476.071886" xlink:href="#me9fc5483dd" y="215.092732"/>
     <use style="fill:#0000ff;stroke:#0000ff;" x="470.511388" xlink:href="#me9fc5483dd" y="208.83282"/>
     <use style="fill:#0000ff;stroke:#0000ff;" x="599.480927" xlink:href="#me9fc5483dd" y="162.647899"/>
     <use style="fill:#0000ff;stroke:#0000ff;" x="567.296377" xlink:href="#me9fc5483dd" y="178.906503"/>
     <use style="fill:#0000ff;stroke:#0000ff;" x="540.346467" xlink:href="#me9fc5483dd" y="131.89309"/>
     <use style="fill:#0000ff;stroke:#0000ff;" x="585.089138" xlink:href="#me9fc5483dd" y="113.764535"/>
     <use style="fill:#0000ff;stroke:#0000ff;" x="559.203743" xlink:href="#me9fc5483dd" y="292.295967"/>
     <use style="fill:#0000ff;stroke:#0000ff;" x="589.191813" xlink:href="#me9fc5483dd" y="148.579651"/>
     <use style="fill:#0000ff;stroke:#0000ff;" x="484.684962" xlink:href="#me9fc5483dd" y="218.616441"/>
     <use style="fill:#0000ff;stroke:#0000ff;" x="585.816389" xlink:href="#me9fc5483dd" y="117.637942"/>
     <use style="fill:#0000ff;stroke:#0000ff;" x="517.236955" xlink:href="#me9fc5483dd" y="196.66662"/>
     <use style="fill:#0000ff;stroke:#0000ff;" x="598.70849" xlink:href="#me9fc5483dd" y="155.4816"/>
     <use style="fill:#0000ff;stroke:#0000ff;" x="588.555613" xlink:href="#me9fc5483dd" y="135.533724"/>
     <use style="fill:#0000ff;stroke:#0000ff;" x="524.670396" xlink:href="#me9fc5483dd" y="202.426691"/>
     <use style="fill:#0000ff;stroke:#0000ff;" x="538.975403" xlink:href="#me9fc5483dd" y="212.750676"/>
     <use style="fill:#0000ff;stroke:#0000ff;" x="534.437222" xlink:href="#me9fc5483dd" y="176.760005"/>
     <use style="fill:#0000ff;stroke:#0000ff;" x="597.487656" xlink:href="#me9fc5483dd" y="131.09352"/>
     <use style="fill:#0000ff;stroke:#0000ff;" x="590.871888" xlink:href="#me9fc5483dd" y="122.239241"/>
     <use style="fill:#0000ff;stroke:#0000ff;" x="539.696057" xlink:href="#me9fc5483dd" y="131.307516"/>
     <use style="fill:#0000ff;stroke:#0000ff;" x="535.322729" xlink:href="#me9fc5483dd" y="173.962231"/>
     <use style="fill:#0000ff;stroke:#0000ff;" x="539.392118" xlink:href="#me9fc5483dd" y="203.680204"/>
     <use style="fill:#0000ff;stroke:#0000ff;" x="500.74795" xlink:href="#me9fc5483dd" y="202.357464"/>
     <use style="fill:#0000ff;stroke:#0000ff;" x="576.202048" xlink:href="#me9fc5483dd" y="122.502456"/>
     <use style="fill:#0000ff;stroke:#0000ff;" x="618.768254" xlink:href="#me9fc5483dd" y="159.555201"/>
     <use style="fill:#0000ff;stroke:#0000ff;" x="575.089018" xlink:href="#me9fc5483dd" y="178.270249"/>
     <use style="fill:#0000ff;stroke:#0000ff;" x="535.328356" xlink:href="#me9fc5483dd" y="216.58432"/>
     <use style="fill:#0000ff;stroke:#0000ff;" x="577.235949" xlink:href="#me9fc5483dd" y="150.419753"/>
     <use style="fill:#0000ff;stroke:#0000ff;" x="585.174289" xlink:href="#me9fc5483dd" y="155.551068"/>
     <use style="fill:#0000ff;stroke:#0000ff;" x="577.502656" xlink:href="#me9fc5483dd" y="151.562923"/>
     <use style="fill:#0000ff;stroke:#0000ff;" x="488.377803" xlink:href="#me9fc5483dd" y="213.451569"/>
     <use style="fill:#0000ff;stroke:#0000ff;" x="592.798309" xlink:href="#me9fc5483dd" y="150.15626"/>
     <use style="fill:#0000ff;stroke:#0000ff;" x="605.875151" xlink:href="#me9fc5483dd" y="152.414031"/>
     <use style="fill:#0000ff;stroke:#0000ff;" x="571.111182" xlink:href="#me9fc5483dd" y="158.452918"/>
     <use style="fill:#0000ff;stroke:#0000ff;" x="497.508057" xlink:href="#me9fc5483dd" y="192.643601"/>
     <use style="fill:#0000ff;stroke:#0000ff;" x="567.170371" xlink:href="#me9fc5483dd" y="172.305141"/>
     <use style="fill:#0000ff;stroke:#0000ff;" x="620.116086" xlink:href="#me9fc5483dd" y="162.519588"/>
     <use style="fill:#0000ff;stroke:#0000ff;" x="530.788934" xlink:href="#me9fc5483dd" y="216.737578"/>
    </g>
   </g>
   <g id="matplotlib.axis_1">
    <g id="xtick_1">
     <g id="line2d_1">
      <defs>
       <path d="M 0 0 
L 0 3.5 
" id="m7584872b35" style="stroke:#000000;stroke-width:0.8;"/>
      </defs>
      <g>
       <use style="stroke:#000000;stroke-width:0.8;" x="109.223453" xlink:href="#m7584872b35" y="640.8"/>
      </g>
     </g>
     <g id="text_1">
      <!-- −15 -->
      <defs>
       <path d="M 10.59375 35.5 
L 73.1875 35.5 
L 73.1875 27.203125 
L 10.59375 27.203125 
z
" id="DejaVuSans-8722"/>
       <path d="M 12.40625 8.296875 
L 28.515625 8.296875 
L 28.515625 63.921875 
L 10.984375 60.40625 
L 10.984375 69.390625 
L 28.421875 72.90625 
L 38.28125 72.90625 
L 38.28125 8.296875 
L 54.390625 8.296875 
L 54.390625 0 
L 12.40625 0 
z
" id="DejaVuSans-49"/>
       <path d="M 10.796875 72.90625 
L 49.515625 72.90625 
L 49.515625 64.59375 
L 19.828125 64.59375 
L 19.828125 46.734375 
Q 21.96875 47.46875 24.109375 47.828125 
Q 26.265625 48.1875 28.421875 48.1875 
Q 40.625 48.1875 47.75 41.5 
Q 54.890625 34.8125 54.890625 23.390625 
Q 54.890625 11.625 47.5625 5.09375 
Q 40.234375 -1.421875 26.90625 -1.421875 
Q 22.3125 -1.421875 17.546875 -0.640625 
Q 12.796875 0.140625 7.71875 1.703125 
L 7.71875 11.625 
Q 12.109375 9.234375 16.796875 8.0625 
Q 21.484375 6.890625 26.703125 6.890625 
Q 35.15625 6.890625 40.078125 11.328125 
Q 45.015625 15.765625 45.015625 23.390625 
Q 45.015625 31 40.078125 35.4375 
Q 35.15625 39.890625 26.703125 39.890625 
Q 22.75 39.890625 18.8125 39.015625 
Q 14.890625 38.140625 10.796875 36.28125 
z
" id="DejaVuSans-53"/>
      </defs>
      <g transform="translate(96.56064 656.918125)scale(0.12 -0.12)">
       <use xlink:href="#DejaVuSans-8722"/>
       <use x="83.789062" xlink:href="#DejaVuSans-49"/>
       <use x="147.412109" xlink:href="#DejaVuSans-53"/>
      </g>
     </g>
    </g>
    <g id="xtick_2">
     <g id="line2d_2">
      <g>
       <use style="stroke:#000000;stroke-width:0.8;" x="225.954044" xlink:href="#m7584872b35" y="640.8"/>
      </g>
     </g>
     <g id="text_2">
      <!-- −10 -->
      <defs>
       <path d="M 31.78125 66.40625 
Q 24.171875 66.40625 20.328125 58.90625 
Q 16.5 51.421875 16.5 36.375 
Q 16.5 21.390625 20.328125 13.890625 
Q 24.171875 6.390625 31.78125 6.390625 
Q 39.453125 6.390625 43.28125 13.890625 
Q 47.125 21.390625 47.125 36.375 
Q 47.125 51.421875 43.28125 58.90625 
Q 39.453125 66.40625 31.78125 66.40625 
z
M 31.78125 74.21875 
Q 44.046875 74.21875 50.515625 64.515625 
Q 56.984375 54.828125 56.984375 36.375 
Q 56.984375 17.96875 50.515625 8.265625 
Q 44.046875 -1.421875 31.78125 -1.421875 
Q 19.53125 -1.421875 13.0625 8.265625 
Q 6.59375 17.96875 6.59375 36.375 
Q 6.59375 54.828125 13.0625 64.515625 
Q 19.53125 74.21875 31.78125 74.21875 
z
" id="DejaVuSans-48"/>
      </defs>
      <g transform="translate(213.291232 656.918125)scale(0.12 -0.12)">
       <use xlink:href="#DejaVuSans-8722"/>
       <use x="83.789062" xlink:href="#DejaVuSans-49"/>
       <use x="147.412109" xlink:href="#DejaVuSans-48"/>
      </g>
     </g>
    </g>
    <g id="xtick_3">
     <g id="line2d_3">
      <g>
       <use style="stroke:#000000;stroke-width:0.8;" x="342.684636" xlink:href="#m7584872b35" y="640.8"/>
      </g>
     </g>
     <g id="text_3">
      <!-- −5 -->
      <g transform="translate(333.839323 656.918125)scale(0.12 -0.12)">
       <use xlink:href="#DejaVuSans-8722"/>
       <use x="83.789062" xlink:href="#DejaVuSans-53"/>
      </g>
     </g>
    </g>
    <g id="xtick_4">
     <g id="line2d_4">
      <g>
       <use style="stroke:#000000;stroke-width:0.8;" x="459.415227" xlink:href="#m7584872b35" y="640.8"/>
      </g>
     </g>
     <g id="text_4">
      <!-- 0 -->
      <g transform="translate(455.597727 656.918125)scale(0.12 -0.12)">
       <use xlink:href="#DejaVuSans-48"/>
      </g>
     </g>
    </g>
    <g id="xtick_5">
     <g id="line2d_5">
      <g>
       <use style="stroke:#000000;stroke-width:0.8;" x="576.145818" xlink:href="#m7584872b35" y="640.8"/>
      </g>
     </g>
     <g id="text_5">
      <!-- 5 -->
      <g transform="translate(572.328318 656.918125)scale(0.12 -0.12)">
       <use xlink:href="#DejaVuSans-53"/>
      </g>
     </g>
    </g>
    <g id="text_6">
     <!-- PC 1 -->
     <defs>
      <path d="M 19.671875 64.796875 
L 19.671875 37.40625 
L 32.078125 37.40625 
Q 38.96875 37.40625 42.71875 40.96875 
Q 46.484375 44.53125 46.484375 51.125 
Q 46.484375 57.671875 42.71875 61.234375 
Q 38.96875 64.796875 32.078125 64.796875 
z
M 9.8125 72.90625 
L 32.078125 72.90625 
Q 44.34375 72.90625 50.609375 67.359375 
Q 56.890625 61.8125 56.890625 51.125 
Q 56.890625 40.328125 50.609375 34.8125 
Q 44.34375 29.296875 32.078125 29.296875 
L 19.671875 29.296875 
L 19.671875 0 
L 9.8125 0 
z
" id="DejaVuSans-80"/>
      <path d="M 64.40625 67.28125 
L 64.40625 56.890625 
Q 59.421875 61.53125 53.78125 63.8125 
Q 48.140625 66.109375 41.796875 66.109375 
Q 29.296875 66.109375 22.65625 58.46875 
Q 16.015625 50.828125 16.015625 36.375 
Q 16.015625 21.96875 22.65625 14.328125 
Q 29.296875 6.6875 41.796875 6.6875 
Q 48.140625 6.6875 53.78125 8.984375 
Q 59.421875 11.28125 64.40625 15.921875 
L 64.40625 5.609375 
Q 59.234375 2.09375 53.4375 0.328125 
Q 47.65625 -1.421875 41.21875 -1.421875 
Q 24.65625 -1.421875 15.125 8.703125 
Q 5.609375 18.84375 5.609375 36.375 
Q 5.609375 53.953125 15.125 64.078125 
Q 24.65625 74.21875 41.21875 74.21875 
Q 47.75 74.21875 53.53125 72.484375 
Q 59.328125 70.75 64.40625 67.28125 
z
" id="DejaVuSans-67"/>
      <path id="DejaVuSans-32"/>
     </defs>
     <g transform="translate(352.085156 674.811406)scale(0.15 -0.15)">
      <use xlink:href="#DejaVuSans-80"/>
      <use x="60.302734" xlink:href="#DejaVuSans-67"/>
      <use x="130.126953" xlink:href="#DejaVuSans-32"/>
      <use x="161.914062" xlink:href="#DejaVuSans-49"/>
     </g>
    </g>
   </g>
   <g id="matplotlib.axis_2">
    <g id="ytick_1">
     <g id="line2d_6">
      <defs>
       <path d="M 0 0 
L -3.5 0 
" id="m3ce7a37c52" style="stroke:#000000;stroke-width:0.8;"/>
      </defs>
      <g>
       <use style="stroke:#000000;stroke-width:0.8;" x="90" xlink:href="#m3ce7a37c52" y="588.455569"/>
      </g>
     </g>
     <g id="text_7">
      <!-- −20 -->
      <defs>
       <path d="M 19.1875 8.296875 
L 53.609375 8.296875 
L 53.609375 0 
L 7.328125 0 
L 7.328125 8.296875 
Q 12.9375 14.109375 22.625 23.890625 
Q 32.328125 33.6875 34.8125 36.53125 
Q 39.546875 41.84375 41.421875 45.53125 
Q 43.3125 49.21875 43.3125 52.78125 
Q 43.3125 58.59375 39.234375 62.25 
Q 35.15625 65.921875 28.609375 65.921875 
Q 23.96875 65.921875 18.8125 64.3125 
Q 13.671875 62.703125 7.8125 59.421875 
L 7.8125 69.390625 
Q 13.765625 71.78125 18.9375 73 
Q 24.125 74.21875 28.421875 74.21875 
Q 39.75 74.21875 46.484375 68.546875 
Q 53.21875 62.890625 53.21875 53.421875 
Q 53.21875 48.921875 51.53125 44.890625 
Q 49.859375 40.875 45.40625 35.40625 
Q 44.1875 33.984375 37.640625 27.21875 
Q 31.109375 20.453125 19.1875 8.296875 
z
" id="DejaVuSans-50"/>
      </defs>
      <g transform="translate(53.453437 593.774475)scale(0.14 -0.14)">
       <use xlink:href="#DejaVuSans-8722"/>
       <use x="83.789062" xlink:href="#DejaVuSans-50"/>
       <use x="147.412109" xlink:href="#DejaVuSans-48"/>
      </g>
     </g>
    </g>
    <g id="ytick_2">
     <g id="line2d_7">
      <g>
       <use style="stroke:#000000;stroke-width:0.8;" x="90" xlink:href="#m3ce7a37c52" y="525.146796"/>
      </g>
     </g>
     <g id="text_8">
      <!-- −15 -->
      <g transform="translate(53.453437 530.465702)scale(0.14 -0.14)">
       <use xlink:href="#DejaVuSans-8722"/>
       <use x="83.789062" xlink:href="#DejaVuSans-49"/>
       <use x="147.412109" xlink:href="#DejaVuSans-53"/>
      </g>
     </g>
    </g>
    <g id="ytick_3">
     <g id="line2d_8">
      <g>
       <use style="stroke:#000000;stroke-width:0.8;" x="90" xlink:href="#m3ce7a37c52" y="461.838023"/>
      </g>
     </g>
     <g id="text_9">
      <!-- −10 -->
      <g transform="translate(53.453437 467.15693)scale(0.14 -0.14)">
       <use xlink:href="#DejaVuSans-8722"/>
       <use x="83.789062" xlink:href="#DejaVuSans-49"/>
       <use x="147.412109" xlink:href="#DejaVuSans-48"/>
      </g>
     </g>
    </g>
    <g id="ytick_4">
     <g id="line2d_9">
      <g>
       <use style="stroke:#000000;stroke-width:0.8;" x="90" xlink:href="#m3ce7a37c52" y="398.529251"/>
      </g>
     </g>
     <g id="text_10">
      <!-- −5 -->
      <g transform="translate(62.360937 403.848157)scale(0.14 -0.14)">
       <use xlink:href="#DejaVuSans-8722"/>
       <use x="83.789062" xlink:href="#DejaVuSans-53"/>
      </g>
     </g>
    </g>
    <g id="ytick_5">
     <g id="line2d_10">
      <g>
       <use style="stroke:#000000;stroke-width:0.8;" x="90" xlink:href="#m3ce7a37c52" y="335.220478"/>
      </g>
     </g>
     <g id="text_11">
      <!-- 0 -->
      <g transform="translate(74.0925 340.539384)scale(0.14 -0.14)">
       <use xlink:href="#DejaVuSans-48"/>
      </g>
     </g>
    </g>
    <g id="ytick_6">
     <g id="line2d_11">
      <g>
       <use style="stroke:#000000;stroke-width:0.8;" x="90" xlink:href="#m3ce7a37c52" y="271.911706"/>
      </g>
     </g>
     <g id="text_12">
      <!-- 5 -->
      <g transform="translate(74.0925 277.230612)scale(0.14 -0.14)">
       <use xlink:href="#DejaVuSans-53"/>
      </g>
     </g>
    </g>
    <g id="ytick_7">
     <g id="line2d_12">
      <g>
       <use style="stroke:#000000;stroke-width:0.8;" x="90" xlink:href="#m3ce7a37c52" y="208.602933"/>
      </g>
     </g>
     <g id="text_13">
      <!-- 10 -->
      <g transform="translate(65.185 213.921839)scale(0.14 -0.14)">
       <use xlink:href="#DejaVuSans-49"/>
       <use x="63.623047" xlink:href="#DejaVuSans-48"/>
      </g>
     </g>
    </g>
    <g id="ytick_8">
     <g id="line2d_13">
      <g>
       <use style="stroke:#000000;stroke-width:0.8;" x="90" xlink:href="#m3ce7a37c52" y="145.29416"/>
      </g>
     </g>
     <g id="text_14">
      <!-- 15 -->
      <g transform="translate(65.185 150.613067)scale(0.14 -0.14)">
       <use xlink:href="#DejaVuSans-49"/>
       <use x="63.623047" xlink:href="#DejaVuSans-53"/>
      </g>
     </g>
    </g>
    <g id="text_15">
     <!-- PC 2 -->
     <g transform="translate(46.333906 380.514844)rotate(-90)scale(0.15 -0.15)">
      <use xlink:href="#DejaVuSans-80"/>
      <use x="60.302734" xlink:href="#DejaVuSans-67"/>
      <use x="130.126953" xlink:href="#DejaVuSans-32"/>
      <use x="161.914062" xlink:href="#DejaVuSans-50"/>
     </g>
    </g>
   </g>
   <g id="patch_3">
    <path d="M 90 640.8 
L 90 86.4 
" style="fill:none;stroke:#000000;stroke-linecap:square;stroke-linejoin:miter;stroke-width:0.8;"/>
   </g>
   <g id="patch_4">
    <path d="M 648 640.8 
L 648 86.4 
" style="fill:none;stroke:#000000;stroke-linecap:square;stroke-linejoin:miter;stroke-width:0.8;"/>
   </g>
   <g id="patch_5">
    <path d="M 90 640.8 
L 648 640.8 
" style="fill:none;stroke:#000000;stroke-linecap:square;stroke-linejoin:miter;stroke-width:0.8;"/>
   </g>
   <g id="patch_6">
    <path d="M 90 86.4 
L 648 86.4 
" style="fill:none;stroke:#000000;stroke-linecap:square;stroke-linejoin:miter;stroke-width:0.8;"/>
   </g>
   <g id="text_16">
    <!-- tSNE of Iris Dataset -->
    <defs>
     <path d="M 18.3125 70.21875 
L 18.3125 54.6875 
L 36.8125 54.6875 
L 36.8125 47.703125 
L 18.3125 47.703125 
L 18.3125 18.015625 
Q 18.3125 11.328125 20.140625 9.421875 
Q 21.96875 7.515625 27.59375 7.515625 
L 36.8125 7.515625 
L 36.8125 0 
L 27.59375 0 
Q 17.1875 0 13.234375 3.875 
Q 9.28125 7.765625 9.28125 18.015625 
L 9.28125 47.703125 
L 2.6875 47.703125 
L 2.6875 54.6875 
L 9.28125 54.6875 
L 9.28125 70.21875 
z
" id="DejaVuSans-116"/>
     <path d="M 53.515625 70.515625 
L 53.515625 60.890625 
Q 47.90625 63.578125 42.921875 64.890625 
Q 37.9375 66.21875 33.296875 66.21875 
Q 25.25 66.21875 20.875 63.09375 
Q 16.5 59.96875 16.5 54.203125 
Q 16.5 49.359375 19.40625 46.890625 
Q 22.3125 44.4375 30.421875 42.921875 
L 36.375 41.703125 
Q 47.40625 39.59375 52.65625 34.296875 
Q 57.90625 29 57.90625 20.125 
Q 57.90625 9.515625 50.796875 4.046875 
Q 43.703125 -1.421875 29.984375 -1.421875 
Q 24.8125 -1.421875 18.96875 -0.25 
Q 13.140625 0.921875 6.890625 3.21875 
L 6.890625 13.375 
Q 12.890625 10.015625 18.65625 8.296875 
Q 24.421875 6.59375 29.984375 6.59375 
Q 38.421875 6.59375 43.015625 9.90625 
Q 47.609375 13.234375 47.609375 19.390625 
Q 47.609375 24.75 44.3125 27.78125 
Q 41.015625 30.8125 33.5 32.328125 
L 27.484375 33.5 
Q 16.453125 35.6875 11.515625 40.375 
Q 6.59375 45.0625 6.59375 53.421875 
Q 6.59375 63.09375 13.40625 68.65625 
Q 20.21875 74.21875 32.171875 74.21875 
Q 37.3125 74.21875 42.625 73.28125 
Q 47.953125 72.359375 53.515625 70.515625 
z
" id="DejaVuSans-83"/>
     <path d="M 9.8125 72.90625 
L 23.09375 72.90625 
L 55.421875 11.921875 
L 55.421875 72.90625 
L 64.984375 72.90625 
L 64.984375 0 
L 51.703125 0 
L 19.390625 60.984375 
L 19.390625 0 
L 9.8125 0 
z
" id="DejaVuSans-78"/>
     <path d="M 9.8125 72.90625 
L 55.90625 72.90625 
L 55.90625 64.59375 
L 19.671875 64.59375 
L 19.671875 43.015625 
L 54.390625 43.015625 
L 54.390625 34.71875 
L 19.671875 34.71875 
L 19.671875 8.296875 
L 56.78125 8.296875 
L 56.78125 0 
L 9.8125 0 
z
" id="DejaVuSans-69"/>
     <path d="M 30.609375 48.390625 
Q 23.390625 48.390625 19.1875 42.75 
Q 14.984375 37.109375 14.984375 27.296875 
Q 14.984375 17.484375 19.15625 11.84375 
Q 23.34375 6.203125 30.609375 6.203125 
Q 37.796875 6.203125 41.984375 11.859375 
Q 46.1875 17.53125 46.1875 27.296875 
Q 46.1875 37.015625 41.984375 42.703125 
Q 37.796875 48.390625 30.609375 48.390625 
z
M 30.609375 56 
Q 42.328125 56 49.015625 48.375 
Q 55.71875 40.765625 55.71875 27.296875 
Q 55.71875 13.875 49.015625 6.21875 
Q 42.328125 -1.421875 30.609375 -1.421875 
Q 18.84375 -1.421875 12.171875 6.21875 
Q 5.515625 13.875 5.515625 27.296875 
Q 5.515625 40.765625 12.171875 48.375 
Q 18.84375 56 30.609375 56 
z
" id="DejaVuSans-111"/>
     <path d="M 37.109375 75.984375 
L 37.109375 68.5 
L 28.515625 68.5 
Q 23.6875 68.5 21.796875 66.546875 
Q 19.921875 64.59375 19.921875 59.515625 
L 19.921875 54.6875 
L 34.71875 54.6875 
L 34.71875 47.703125 
L 19.921875 47.703125 
L 19.921875 0 
L 10.890625 0 
L 10.890625 47.703125 
L 2.296875 47.703125 
L 2.296875 54.6875 
L 10.890625 54.6875 
L 10.890625 58.5 
Q 10.890625 67.625 15.140625 71.796875 
Q 19.390625 75.984375 28.609375 75.984375 
z
" id="DejaVuSans-102"/>
     <path d="M 9.8125 72.90625 
L 19.671875 72.90625 
L 19.671875 0 
L 9.8125 0 
z
" id="DejaVuSans-73"/>
     <path d="M 41.109375 46.296875 
Q 39.59375 47.171875 37.8125 47.578125 
Q 36.03125 48 33.890625 48 
Q 26.265625 48 22.1875 43.046875 
Q 18.109375 38.09375 18.109375 28.8125 
L 18.109375 0 
L 9.078125 0 
L 9.078125 54.6875 
L 18.109375 54.6875 
L 18.109375 46.1875 
Q 20.953125 51.171875 25.484375 53.578125 
Q 30.03125 56 36.53125 56 
Q 37.453125 56 38.578125 55.875 
Q 39.703125 55.765625 41.0625 55.515625 
z
" id="DejaVuSans-114"/>
     <path d="M 9.421875 54.6875 
L 18.40625 54.6875 
L 18.40625 0 
L 9.421875 0 
z
M 9.421875 75.984375 
L 18.40625 75.984375 
L 18.40625 64.59375 
L 9.421875 64.59375 
z
" id="DejaVuSans-105"/>
     <path d="M 44.28125 53.078125 
L 44.28125 44.578125 
Q 40.484375 46.53125 36.375 47.5 
Q 32.28125 48.484375 27.875 48.484375 
Q 21.1875 48.484375 17.84375 46.4375 
Q 14.5 44.390625 14.5 40.28125 
Q 14.5 37.15625 16.890625 35.375 
Q 19.28125 33.59375 26.515625 31.984375 
L 29.59375 31.296875 
Q 39.15625 29.25 43.1875 25.515625 
Q 47.21875 21.78125 47.21875 15.09375 
Q 47.21875 7.46875 41.1875 3.015625 
Q 35.15625 -1.421875 24.609375 -1.421875 
Q 20.21875 -1.421875 15.453125 -0.5625 
Q 10.6875 0.296875 5.421875 2 
L 5.421875 11.28125 
Q 10.40625 8.6875 15.234375 7.390625 
Q 20.0625 6.109375 24.8125 6.109375 
Q 31.15625 6.109375 34.5625 8.28125 
Q 37.984375 10.453125 37.984375 14.40625 
Q 37.984375 18.0625 35.515625 20.015625 
Q 33.0625 21.96875 24.703125 23.78125 
L 21.578125 24.515625 
Q 13.234375 26.265625 9.515625 29.90625 
Q 5.8125 33.546875 5.8125 39.890625 
Q 5.8125 47.609375 11.28125 51.796875 
Q 16.75 56 26.8125 56 
Q 31.78125 56 36.171875 55.265625 
Q 40.578125 54.546875 44.28125 53.078125 
z
" id="DejaVuSans-115"/>
     <path d="M 19.671875 64.796875 
L 19.671875 8.109375 
L 31.59375 8.109375 
Q 46.6875 8.109375 53.6875 14.9375 
Q 60.6875 21.78125 60.6875 36.53125 
Q 60.6875 51.171875 53.6875 57.984375 
Q 46.6875 64.796875 31.59375 64.796875 
z
M 9.8125 72.90625 
L 30.078125 72.90625 
Q 51.265625 72.90625 61.171875 64.09375 
Q 71.09375 55.28125 71.09375 36.53125 
Q 71.09375 17.671875 61.125 8.828125 
Q 51.171875 0 30.078125 0 
L 9.8125 0 
z
" id="DejaVuSans-68"/>
     <path d="M 34.28125 27.484375 
Q 23.390625 27.484375 19.1875 25 
Q 14.984375 22.515625 14.984375 16.5 
Q 14.984375 11.71875 18.140625 8.90625 
Q 21.296875 6.109375 26.703125 6.109375 
Q 34.1875 6.109375 38.703125 11.40625 
Q 43.21875 16.703125 43.21875 25.484375 
L 43.21875 27.484375 
z
M 52.203125 31.203125 
L 52.203125 0 
L 43.21875 0 
L 43.21875 8.296875 
Q 40.140625 3.328125 35.546875 0.953125 
Q 30.953125 -1.421875 24.3125 -1.421875 
Q 15.921875 -1.421875 10.953125 3.296875 
Q 6 8.015625 6 15.921875 
Q 6 25.140625 12.171875 29.828125 
Q 18.359375 34.515625 30.609375 34.515625 
L 43.21875 34.515625 
L 43.21875 35.40625 
Q 43.21875 41.609375 39.140625 45 
Q 35.0625 48.390625 27.6875 48.390625 
Q 23 48.390625 18.546875 47.265625 
Q 14.109375 46.140625 10.015625 43.890625 
L 10.015625 52.203125 
Q 14.9375 54.109375 19.578125 55.046875 
Q 24.21875 56 28.609375 56 
Q 40.484375 56 46.34375 49.84375 
Q 52.203125 43.703125 52.203125 31.203125 
z
" id="DejaVuSans-97"/>
     <path d="M 56.203125 29.59375 
L 56.203125 25.203125 
L 14.890625 25.203125 
Q 15.484375 15.921875 20.484375 11.0625 
Q 25.484375 6.203125 34.421875 6.203125 
Q 39.59375 6.203125 44.453125 7.46875 
Q 49.3125 8.734375 54.109375 11.28125 
L 54.109375 2.78125 
Q 49.265625 0.734375 44.1875 -0.34375 
Q 39.109375 -1.421875 33.890625 -1.421875 
Q 20.796875 -1.421875 13.15625 6.1875 
Q 5.515625 13.8125 5.515625 26.8125 
Q 5.515625 40.234375 12.765625 48.109375 
Q 20.015625 56 32.328125 56 
Q 43.359375 56 49.78125 48.890625 
Q 56.203125 41.796875 56.203125 29.59375 
z
M 47.21875 32.234375 
Q 47.125 39.59375 43.09375 43.984375 
Q 39.0625 48.390625 32.421875 48.390625 
Q 24.90625 48.390625 20.390625 44.140625 
Q 15.875 39.890625 15.1875 32.171875 
z
" id="DejaVuSans-101"/>
    </defs>
    <g transform="translate(271.55 80.4)scale(0.2 -0.2)">
     <use xlink:href="#DejaVuSans-116"/>
     <use x="39.208984" xlink:href="#DejaVuSans-83"/>
     <use x="102.685547" xlink:href="#DejaVuSans-78"/>
     <use x="177.490234" xlink:href="#DejaVuSans-69"/>
     <use x="240.673828" xlink:href="#DejaVuSans-32"/>
     <use x="272.460938" xlink:href="#DejaVuSans-111"/>
     <use x="333.642578" xlink:href="#DejaVuSans-102"/>
     <use x="368.847656" xlink:href="#DejaVuSans-32"/>
     <use x="400.634766" xlink:href="#DejaVuSans-73"/>
     <use x="430.126953" xlink:href="#DejaVuSans-114"/>
     <use x="471.240234" xlink:href="#DejaVuSans-105"/>
     <use x="499.023438" xlink:href="#DejaVuSans-115"/>
     <use x="551.123047" xlink:href="#DejaVuSans-32"/>
     <use x="582.910156" xlink:href="#DejaVuSans-68"/>
     <use x="659.912109" xlink:href="#DejaVuSans-97"/>
     <use x="721.191406" xlink:href="#DejaVuSans-116"/>
     <use x="760.400391" xlink:href="#DejaVuSans-97"/>
     <use x="821.679688" xlink:href="#DejaVuSans-115"/>
     <use x="873.779297" xlink:href="#DejaVuSans-101"/>
     <use x="935.302734" xlink:href="#DejaVuSans-116"/>
    </g>
   </g>
   <g id="legend_1">
    <g id="patch_7">
     <path d="M 506.800781 633.3 
L 637.5 633.3 
Q 640.5 633.3 640.5 630.3 
L 640.5 565.748438 
Q 640.5 562.748438 637.5 562.748438 
L 506.800781 562.748438 
Q 503.800781 562.748438 503.800781 565.748438 
L 503.800781 630.3 
Q 503.800781 633.3 506.800781 633.3 
z
" style="fill:#ffffff;opacity:0.8;stroke:#cccccc;stroke-linejoin:miter;"/>
    </g>
    <g id="PathCollection_4">
     <g>
      <use style="fill:#ff0000;stroke:#ff0000;" x="524.800781" xlink:href="#m58bdefdd7d" y="576.208594"/>
     </g>
    </g>
    <g id="text_17">
     <!-- setosa -->
     <g transform="translate(551.800781 580.146094)scale(0.15 -0.15)">
      <use xlink:href="#DejaVuSans-115"/>
      <use x="52.099609" xlink:href="#DejaVuSans-101"/>
      <use x="113.623047" xlink:href="#DejaVuSans-116"/>
      <use x="152.832031" xlink:href="#DejaVuSans-111"/>
      <use x="214.013672" xlink:href="#DejaVuSans-115"/>
      <use x="266.113281" xlink:href="#DejaVuSans-97"/>
     </g>
    </g>
    <g id="PathCollection_5">
     <g>
      <use style="fill:#008000;stroke:#008000;" x="524.800781" xlink:href="#mdd3996aa26" y="598.225781"/>
     </g>
    </g>
    <g id="text_18">
     <!-- versicolour -->
     <defs>
      <path d="M 2.984375 54.6875 
L 12.5 54.6875 
L 29.59375 8.796875 
L 46.6875 54.6875 
L 56.203125 54.6875 
L 35.6875 0 
L 23.484375 0 
z
" id="DejaVuSans-118"/>
      <path d="M 48.78125 52.59375 
L 48.78125 44.1875 
Q 44.96875 46.296875 41.140625 47.34375 
Q 37.3125 48.390625 33.40625 48.390625 
Q 24.65625 48.390625 19.8125 42.84375 
Q 14.984375 37.3125 14.984375 27.296875 
Q 14.984375 17.28125 19.8125 11.734375 
Q 24.65625 6.203125 33.40625 6.203125 
Q 37.3125 6.203125 41.140625 7.25 
Q 44.96875 8.296875 48.78125 10.40625 
L 48.78125 2.09375 
Q 45.015625 0.34375 40.984375 -0.53125 
Q 36.96875 -1.421875 32.421875 -1.421875 
Q 20.0625 -1.421875 12.78125 6.34375 
Q 5.515625 14.109375 5.515625 27.296875 
Q 5.515625 40.671875 12.859375 48.328125 
Q 20.21875 56 33.015625 56 
Q 37.15625 56 41.109375 55.140625 
Q 45.0625 54.296875 48.78125 52.59375 
z
" id="DejaVuSans-99"/>
      <path d="M 9.421875 75.984375 
L 18.40625 75.984375 
L 18.40625 0 
L 9.421875 0 
z
" id="DejaVuSans-108"/>
      <path d="M 8.5 21.578125 
L 8.5 54.6875 
L 17.484375 54.6875 
L 17.484375 21.921875 
Q 17.484375 14.15625 20.5 10.265625 
Q 23.53125 6.390625 29.59375 6.390625 
Q 36.859375 6.390625 41.078125 11.03125 
Q 45.3125 15.671875 45.3125 23.6875 
L 45.3125 54.6875 
L 54.296875 54.6875 
L 54.296875 0 
L 45.3125 0 
L 45.3125 8.40625 
Q 42.046875 3.421875 37.71875 1 
Q 33.40625 -1.421875 27.6875 -1.421875 
Q 18.265625 -1.421875 13.375 4.4375 
Q 8.5 10.296875 8.5 21.578125 
z
M 31.109375 56 
z
" id="DejaVuSans-117"/>
     </defs>
     <g transform="translate(551.800781 602.163281)scale(0.15 -0.15)">
      <use xlink:href="#DejaVuSans-118"/>
      <use x="59.179688" xlink:href="#DejaVuSans-101"/>
      <use x="120.703125" xlink:href="#DejaVuSans-114"/>
      <use x="161.816406" xlink:href="#DejaVuSans-115"/>
      <use x="213.916016" xlink:href="#DejaVuSans-105"/>
      <use x="241.699219" xlink:href="#DejaVuSans-99"/>
      <use x="296.679688" xlink:href="#DejaVuSans-111"/>
      <use x="357.861328" xlink:href="#DejaVuSans-108"/>
      <use x="385.644531" xlink:href="#DejaVuSans-111"/>
      <use x="446.826172" xlink:href="#DejaVuSans-117"/>
      <use x="510.205078" xlink:href="#DejaVuSans-114"/>
     </g>
    </g>
    <g id="PathCollection_6">
     <g>
      <use style="fill:#0000ff;stroke:#0000ff;" x="524.800781" xlink:href="#me9fc5483dd" y="620.242969"/>
     </g>
    </g>
    <g id="text_19">
     <!-- virginica -->
     <defs>
      <path d="M 45.40625 27.984375 
Q 45.40625 37.75 41.375 43.109375 
Q 37.359375 48.484375 30.078125 48.484375 
Q 22.859375 48.484375 18.828125 43.109375 
Q 14.796875 37.75 14.796875 27.984375 
Q 14.796875 18.265625 18.828125 12.890625 
Q 22.859375 7.515625 30.078125 7.515625 
Q 37.359375 7.515625 41.375 12.890625 
Q 45.40625 18.265625 45.40625 27.984375 
z
M 54.390625 6.78125 
Q 54.390625 -7.171875 48.1875 -13.984375 
Q 42 -20.796875 29.203125 -20.796875 
Q 24.46875 -20.796875 20.265625 -20.09375 
Q 16.0625 -19.390625 12.109375 -17.921875 
L 12.109375 -9.1875 
Q 16.0625 -11.328125 19.921875 -12.34375 
Q 23.78125 -13.375 27.78125 -13.375 
Q 36.625 -13.375 41.015625 -8.765625 
Q 45.40625 -4.15625 45.40625 5.171875 
L 45.40625 9.625 
Q 42.625 4.78125 38.28125 2.390625 
Q 33.9375 0 27.875 0 
Q 17.828125 0 11.671875 7.65625 
Q 5.515625 15.328125 5.515625 27.984375 
Q 5.515625 40.671875 11.671875 48.328125 
Q 17.828125 56 27.875 56 
Q 33.9375 56 38.28125 53.609375 
Q 42.625 51.21875 45.40625 46.390625 
L 45.40625 54.6875 
L 54.390625 54.6875 
z
" id="DejaVuSans-103"/>
      <path d="M 54.890625 33.015625 
L 54.890625 0 
L 45.90625 0 
L 45.90625 32.71875 
Q 45.90625 40.484375 42.875 44.328125 
Q 39.84375 48.1875 33.796875 48.1875 
Q 26.515625 48.1875 22.3125 43.546875 
Q 18.109375 38.921875 18.109375 30.90625 
L 18.109375 0 
L 9.078125 0 
L 9.078125 54.6875 
L 18.109375 54.6875 
L 18.109375 46.1875 
Q 21.34375 51.125 25.703125 53.5625 
Q 30.078125 56 35.796875 56 
Q 45.21875 56 50.046875 50.171875 
Q 54.890625 44.34375 54.890625 33.015625 
z
" id="DejaVuSans-110"/>
     </defs>
     <g transform="translate(551.800781 624.180469)scale(0.15 -0.15)">
      <use xlink:href="#DejaVuSans-118"/>
      <use x="59.179688" xlink:href="#DejaVuSans-105"/>
      <use x="86.962891" xlink:href="#DejaVuSans-114"/>
      <use x="128.060547" xlink:href="#DejaVuSans-103"/>
      <use x="191.537109" xlink:href="#DejaVuSans-105"/>
      <use x="219.320312" xlink:href="#DejaVuSans-110"/>
      <use x="282.699219" xlink:href="#DejaVuSans-105"/>
      <use x="310.482422" xlink:href="#DejaVuSans-99"/>
      <use x="365.462891" xlink:href="#DejaVuSans-97"/>
     </g>
    </g>
   </g>
  </g>
 </g>
 <defs>
  <clipPath id="pc62982312f">
   <rect height="554.4" width="558" x="90" y="86.4"/>
  </clipPath>
 </defs>
</svg>
